<?xml version="1.0" encoding="utf-8"?>
<!-- Generator: Adobe Illustrator 19.1.0, SVG Export Plug-In . SVG Version: 6.00 Build 0)  -->
<svg version="1.1" id="Calque_1" xmlns="http://www.w3.org/2000/svg" xmlns:xlink="http://www.w3.org/1999/xlink" x="0px" y="0px"
	 viewBox="-31 7 148 150" style="enable-background:new -31 7 148 150;" xml:space="preserve">
<style type="text/css">
	.st0{fill:none;stroke:#212D42;stroke-width:4;stroke-miterlimit:10;}
	.st1{fill:#232F45;}
	.st2{fill:#FEFEFF;}
</style>
<circle class="st0" cx="42.2" cy="81.9" r="69.2"/>
<path class="st1" d="M13.3,108c-4.7,1.8-8,5-10.9,8.7c-1.1,1.3-1.2,3.2-1.4,4.9c-0.4,3.8-0.7,7.5-1,11.3c-0.1,0.5,0.1,1.1-0.7,1.4
	c-0.8-0.2-1.2-0.9-1.2-1.6c0.1-5-0.1-10.1,1.4-15.1c1.3-4.2,4.8-6.5,8-9c1.7-1.3,3.7-2.2,5.6-3.2c-0.4-1-1.6-1.3-2-2.2
	c1-0.9,2.3-1.1,3.5-1.7c1.7-0.9,3-2.1,4.1-3.7c3.2-4.9,4.4-10.3,3.7-16.1c0-0.3-0.1-0.5,0-0.8c0.3-2.5-0.1-5-0.9-7.4
	c-0.2-0.5-0.3-1.2-0.1-1.6c1.1-2.6,0.1-5.1-0.2-7.7c-0.4-4.1,0.5-8,2.1-11.7c2.4-5.6,6.1-10.2,11.4-13.2c2.1-1.3,4.4-2.2,6.8-0.9
	c0.2,0.1,0.4,0.1,0.6,0.1c3.4-1.7,6.7-0.6,9.9,0.5c6.6,2.4,10.5,7.3,12,14c1.8,8,2.6,16.1,1.9,24.4c-0.5,5.2-0.5,10.5-0.5,15.6
	c0.1,4.3,2.1,7.7,5.6,10.3c1.1,0.8,2.1,1.3,3.2,1.7c4.6,1.8,8.5,4.3,10.1,9.3c0.5,1.4,0.8,2.7,0.6,4.2c-0.3,2.1-0.3,4.2-0.1,6.4
	c0.3,1.9-0.2,3.8-0.5,5.8c-0.1,0.5-0.2,1.4-1.1,1.2c-0.7-0.1-0.9-0.8-0.8-1.5c0.2-1.4,0.4-2.8,0.5-4.2c0.2-3.4-0.1-6.7-0.2-10.1
	c-0.1-4.8-3.5-7.3-7.6-9c-1.1-0.5-2.2-0.7-3-1.2c-3.1,1.3-2.6,4.4-3.8,6.6c-3,5.4-6.5,10.4-12.2,13.3c-2.4,1.3-4.9,1-7.2-0.5
	c-2.2-1.5-4.3-3-5-5.6c-0.7,0.1-0.8,0.7-1,1.1c-1.6,2.9-3.9,5-7,6.2c-3.4,1.3-6.7,0.4-9.6-1.5C20.1,121.1,15.4,115.7,13.3,108z
	 M35.1,52.8c-2.1,3.6-5,6.5-6.2,10.3c-1.1,3.5-3,6.8-2.4,10.8c1.1,7.5,3.4,14.3,9.9,19.1c3.9,2.8,8.8,3.4,13,1
	c3.9-2.2,6-5.8,7.5-9.9c1.5-4.2,2.2-8.6,2.4-13.1c0.1-3-1.6-4.9-4.6-4.8c-0.2,0.6,0.8,0.7,0.5,1.3c-1.7,0.2-7.1-0.5-7.6-1.1
	c1.1-0.7,2.3-0.4,3.8-0.7c-1.1-0.4-1.7-1.5-2.6-0.8c-0.9,0.7-1.6,0.4-2.4,0.1c-3-1.1-5.3-3.1-7-5.8C38,57.2,36.6,55.2,35.1,52.8z
	 M27,108c-0.1,0.5,0.3,0.9,0.5,1.3c1.2,2,2.9,3.4,4.9,4.6c8.8,5,16.3,3.6,22.8-3.9c2-2.3,1.8-2.4,0.1-4.8c-2.1-2.8-3.5-6.1-4-9.7
	c-7.5,2.9-9.1,2.9-16.5-1.6C34.7,100,32.7,105,27,108z M41.1,118.9c-6.6-1.9-12.8-4-15.7-10.9c-1.8,0.6-3.4,0.1-4.6-0.8
	c-1.9-1.3-3.7-0.3-5.6-0.3c0,2,0.6,3.6,1.3,5.2c2.2,4.8,5.7,8.3,9.9,11.2C31.6,127.1,38.5,125,41.1,118.9z M45.3,118.4
	c1.5,6,6.6,7.8,11.3,4.3c4.5-3.3,7.9-7.7,10.6-12.5c0.3-0.4,0.6-0.9,0.5-1.5c-3,0.7-5.7-0.7-8.8-0.3C56,113.5,51.7,117.2,45.3,118.4
	z M25.7,77.7c-0.9-2.8,0-5.7-1.4-8.1c-1.4,0.9-1.9,1.7-1.5,3.8C23.1,74.9,23.2,76.9,25.7,77.7z M60.9,76c1.7-2.5,2.2-5.2,1.1-6.4
	C60.5,71.6,61.4,74,60.9,76z"/>
<path class="st2" d="M35.1,52.8c1.5,2.3,2.8,4.4,4.2,6.4c1.7,2.6,4,4.7,7,5.8c0.9,0.3,1.6,0.5,2.4-0.1c0.9-0.7,1.5,0.3,2.6,0.8
	c-1.5,0.3-2.7-0.1-3.8,0.7c0.5,0.5,5.8,1.3,7.6,1.1c0.3-0.6-0.7-0.7-0.5-1.3c3-0.1,4.8,1.8,4.6,4.8c-0.1,4.5-0.9,8.9-2.4,13.1
	c-1.5,4-3.6,7.7-7.5,9.9c-4.2,2.4-9.1,1.9-13-1c-6.5-4.8-8.8-11.5-9.9-19.1c-0.6-3.9,1.3-7.3,2.4-10.8C30.1,59.3,33,56.5,35.1,52.8z
	 M38.9,86.1c0.5,1,1.3,1.1,2,1.4c0.7,0.2,1.4,0.3,1.5,1.4c0.1,0.8,1.1,0.9,1.9,0.7c1.1-0.2,0.2-1.1,0.5-1.5c1.6-0.3,3-0.7,4-2
	C45.4,86.5,42.1,86.9,38.9,86.1z M52.8,71.3c2.3,1.7,2.3,1.7,3.1,0.8c-0.6-0.5-1.2-1.1-1.9-1.7c-1.9-1.7-5-1.5-6.2,0.3
	c-0.3,0.4-0.5,0.8-0.1,1.2c0.3,0.4,0.7,0.5,1.1,0.1c0.2-0.2,0.4-0.5,0.7-0.2C50.9,73,51.9,72.4,52.8,71.3z M34,71.5
	c1.1,1.1,2.2,1.7,3.2,0.1c0.5,0.2,0.7,1,1.5,0.7c0.5-1.3-0.5-1.8-1.4-2.3c-2.4-1.3-4-0.7-6.4,2.4C32.2,73.1,32.9,72.1,34,71.5z
	 M31.4,67.1c2.6,1.2,5.2-0.6,8.2,0.3C38.2,65.3,33.6,65.3,31.4,67.1z M41.5,80.2c0.8,2.2,3.1,2.4,5,0.6
	C44.8,79.8,42.9,81.9,41.5,80.2z M40.3,70.8c0.3,0.8-0.2,1.7,0.8,2.1C41.8,71.5,41.8,71.5,40.3,70.8z M45.8,70.8
	c-0.7,1.3-0.7,1.3,0.7,2.2C46.4,72.2,46.8,71.3,45.8,70.8z"/>
<path class="st2" d="M27,108c5.6-3,7.6-8.1,7.7-14.1c7.4,4.6,9,4.6,16.5,1.6c0.5,3.6,1.9,6.7,4,9.7c1.8,2.4,1.9,2.5-0.1,4.8
	c-6.4,7.5-14,9-22.8,3.9c-2-1.1-3.7-2.5-4.9-4.6C27.3,108.9,27,108.5,27,108z"/>
<path class="st2" d="M41.1,118.9c-2.5,6-9.5,8.1-14.6,4.5c-4.2-2.9-7.7-6.5-9.9-11.2c-0.7-1.6-1.3-3.2-1.3-5.2
	c1.9-0.1,3.6-1.1,5.6,0.3c1.3,0.9,2.8,1.3,4.6,0.8C28.2,114.9,34.5,117.1,41.1,118.9z"/>
<path class="st2" d="M45.3,118.4c6.4-1.1,10.7-5,13.6-9.9c3.2-0.3,5.9,1,8.8,0.3c0.1,0.6-0.2,1.1-0.5,1.5
	c-2.8,4.8-6.1,9.1-10.6,12.5C51.9,126.2,46.8,124.4,45.3,118.4z"/>
<path class="st2" d="M25.7,77.7c-2.4-0.9-2.6-2.7-2.8-4.4c-0.4-2.1,0.1-2.9,1.5-3.8C25.7,72,24.7,74.8,25.7,77.7z"/>
<path class="st2" d="M60.9,76c0.5-2.1-0.3-4.4,1.1-6.4C63,70.8,62.6,73.5,60.9,76z"/>
<path class="st1" d="M38.9,86.1c3.3,0.8,6.6,0.3,9.9,0.1c-1.1,1.4-2.4,1.7-4,2c-0.3,0.4,0.7,1.3-0.5,1.5c-0.9,0.1-1.9,0-1.9-0.7
	c-0.1-1.1-0.8-1.1-1.5-1.4C40.1,87.3,39.3,87.1,38.9,86.1z"/>
<path class="st1" d="M52.8,71.3c-0.9,1.1-2,1.7-3.2,0.5c-0.3-0.3-0.5,0-0.7,0.2c-0.4,0.5-0.8,0.3-1.1-0.1c-0.3-0.4-0.1-0.8,0.1-1.2
	c1.1-1.7,4.2-1.9,6.2-0.3c0.6,0.5,1.2,1.1,1.9,1.7C55.2,73,55.2,73,52.8,71.3z"/>
<path class="st1" d="M34,71.5c-1,0.7-1.8,1.7-3,0.8c2.4-3,4-3.6,6.4-2.4c0.9,0.5,1.9,1,1.4,2.3c-0.8,0.3-1-0.5-1.5-0.7
	C36.2,73.2,35.1,72.6,34,71.5z"/>
<path class="st1" d="M31.4,67.1c2.2-1.9,6.8-1.8,8.2,0.3C36.6,66.5,34.1,68.3,31.4,67.1z"/>
<path class="st1" d="M41.5,80.2c1.5,1.7,3.3-0.4,5,0.6C44.6,82.6,42.3,82.4,41.5,80.2z"/>
<path class="st1" d="M40.3,70.8c1.5,0.7,1.5,0.7,0.8,2.1C40.1,72.5,40.5,71.6,40.3,70.8z"/>
<path class="st1" d="M45.8,70.8c0.9,0.5,0.5,1.4,0.7,2.2C45.2,72.1,45.2,72.1,45.8,70.8z"/>
</svg>
