<?xml version="1.0" encoding="utf-8"?>
<!-- Generator: Adobe Illustrator 19.1.0, SVG Export Plug-In . SVG Version: 6.00 Build 0)  -->
<svg version="1.1" id="Calque_1" xmlns="http://www.w3.org/2000/svg" xmlns:xlink="http://www.w3.org/1999/xlink" x="0px" y="0px"
	 viewBox="0 0 148 150" style="enable-background:new 0 0 148 150;" xml:space="preserve">
<style type="text/css">
	.st0{fill:#232F45;}
	.st1{fill:#FEFEFF;}
</style>
<path class="st0" d="M32.9,108.3c-7.1,2.7-12.1,7.6-16.5,13.2c-1.6,2-1.8,4.8-2.1,7.4c-0.6,5.7-1,11.4-1.5,17.1
	c-0.1,0.8,0.1,1.7-1,2.1c-1.2-0.3-1.8-1.4-1.8-2.4c0.1-7.6-0.1-15.3,2.1-22.8c1.9-6.4,7.2-9.8,12.1-13.6c2.6-2,5.6-3.3,8.5-4.8
	c-0.6-1.5-2.4-1.9-3-3.4c1.5-1.3,3.5-1.7,5.3-2.6c2.6-1.3,4.6-3.2,6.2-5.6c4.8-7.4,6.6-15.5,5.6-24.3c0-0.4-0.1-0.8,0-1.2
	c0.4-3.8-0.1-7.5-1.4-11.2c-0.3-0.7-0.4-1.8-0.2-2.4c1.6-3.9,0.1-7.7-0.3-11.6c-0.6-6.2,0.7-12.1,3.2-17.7c3.7-8.4,9.2-15.4,17.3-20
	c3.2-1.9,6.6-3.4,10.3-1.4c0.3,0.2,0.6,0.2,0.9,0.1c5.1-2.6,10.2-0.9,15,0.8c10,3.6,15.8,11.1,18.1,21.2c2.7,12.1,4,24.4,2.8,36.9
	c-0.7,7.8-0.8,15.8-0.8,23.6c0.1,6.5,3.1,11.7,8.4,15.6c1.6,1.2,3.2,1.9,4.9,2.6c6.9,2.7,12.8,6.5,15.2,14.1
	c0.7,2.1,1.2,4.1,0.9,6.4c-0.4,3.2-0.5,6.4-0.1,9.7c0.4,2.9-0.3,5.8-0.8,8.7c-0.2,0.8-0.3,2.1-1.6,1.8c-1.1-0.2-1.4-1.2-1.2-2.3
	c0.3-2.1,0.6-4.3,0.7-6.4c0.3-5.1-0.2-10.1-0.3-15.2c-0.2-7.2-5.3-11.1-11.5-13.6c-1.6-0.7-3.3-1.1-4.6-1.8
	c-4.7,1.9-3.9,6.6-5.8,9.9c-4.6,8.1-9.8,15.7-18.4,20.1c-3.7,1.9-7.4,1.5-10.9-0.8c-3.3-2.2-6.5-4.5-7.6-8.5c-1.1,0.1-1.2,1-1.5,1.6
	c-2.4,4.4-5.9,7.6-10.6,9.3c-5.2,1.9-10.1,0.6-14.5-2.3C43.1,128.1,36,119.9,32.9,108.3z M65.8,24.9c-3.2,5.5-7.6,9.8-9.4,15.6
	c-1.6,5.3-4.5,10.3-3.7,16.3c1.7,11.4,5.2,21.6,15,28.8c5.9,4.3,13.3,5.1,19.6,1.5c5.9-3.3,9.1-8.8,11.4-14.9
	c2.3-6.4,3.4-13,3.6-19.8c0.2-4.5-2.4-7.4-7-7.2c-0.3,0.9,1.2,1,0.8,1.9c-2.6,0.3-10.8-0.8-11.5-1.7c1.6-1.1,3.5-0.6,5.7-1
	c-1.6-0.6-2.5-2.2-3.9-1.2c-1.3,1-2.4,0.6-3.7,0.1c-4.6-1.6-8-4.7-10.6-8.7C70.1,31.5,68,28.4,65.8,24.9z M53.6,108.3
	c-0.1,0.7,0.4,1.3,0.7,2c1.8,3,4.4,5.2,7.4,6.9c13.3,7.6,24.7,5.5,34.4-5.9c3-3.5,2.7-3.6,0.1-7.2c-3.2-4.3-5.3-9.2-6-14.6
	c-11.3,4.4-13.7,4.4-24.9-2.4C65.2,96.1,62.1,103.7,53.6,108.3z M74.8,124.8c-9.9-2.9-19.3-6.1-23.7-16.5c-2.7,0.9-5.1,0.2-7-1.2
	c-2.9-2-5.6-0.4-8.4-0.4c0,3,0.9,5.5,2,7.9c3.3,7.2,8.6,12.5,15,17C60.5,137.1,70.9,133.9,74.8,124.8z M81.2,124
	c2.2,9,9.9,11.8,17.1,6.5c6.8-5,11.9-11.6,16-18.9c0.4-0.6,0.9-1.3,0.7-2.2c-4.5,1-8.6-1-13.3-0.4C97.3,116.5,90.8,122.2,81.2,124z
	 M51.5,62.5c-1.3-4.3,0-8.6-2.1-12.3c-2.1,1.3-2.8,2.6-2.2,5.7C47.6,58.3,47.8,61.2,51.5,62.5z M104.7,59.9c2.6-3.8,3.3-7.8,1.6-9.6
	C104.2,53.3,105.5,56.8,104.7,59.9z"/>
<path class="st1" d="M65.8,24.9c2.3,3.5,4.3,6.6,6.3,9.7c2.6,4,6,7.1,10.6,8.7c1.3,0.5,2.4,0.8,3.7-0.1c1.4-1.1,2.3,0.5,3.9,1.2
	c-2.2,0.4-4.1-0.1-5.7,1c0.7,0.8,8.8,2,11.5,1.7c0.4-0.9-1.1-1-0.8-1.9c4.6-0.1,7.2,2.7,7,7.2c-0.2,6.8-1.3,13.4-3.6,19.8
	c-2.2,6.1-5.5,11.6-11.4,14.9c-6.4,3.6-13.7,2.8-19.6-1.5c-9.8-7.2-13.3-17.4-15-28.8c-0.9-5.9,2-11,3.7-16.3
	C58.2,34.7,62.6,30.4,65.8,24.9z M71.5,75.2c0.7,1.5,1.9,1.7,3,2.1c1,0.3,2.1,0.4,2.2,2.1c0.1,1.2,1.6,1.4,2.9,1.1
	c1.7-0.3,0.3-1.6,0.7-2.2c2.4-0.4,4.5-1,6.1-3C81.4,75.7,76.4,76.4,71.5,75.2z M92.6,52.8c3.5,2.6,3.5,2.6,4.7,1.2
	c-0.9-0.8-1.8-1.6-2.8-2.5c-2.9-2.5-7.6-2.3-9.3,0.4c-0.4,0.6-0.8,1.2-0.2,1.8c0.5,0.6,1.1,0.7,1.7,0.1c0.3-0.3,0.6-0.7,1-0.3
	C89.6,55.4,91.2,54.4,92.6,52.8z M64.1,53.1c1.7,1.7,3.4,2.5,4.9,0.1c0.8,0.3,1.1,1.5,2.3,1c0.7-2-0.7-2.7-2.1-3.5
	c-3.7-1.9-6.1-1-9.7,3.6C61.4,55.5,62.5,54,64.1,53.1z M60.2,46.5c4,1.8,7.9-0.9,12.4,0.4C70.5,43.8,63.5,43.7,60.2,46.5z
	 M75.4,66.3c1.2,3.3,4.7,3.7,7.6,0.9C80.4,65.7,77.6,68.8,75.4,66.3z M73.6,52.1c0.4,1.2-0.3,2.5,1.2,3.2
	C75.9,53.1,75.9,53.1,73.6,52.1z M82,52c-1,2-1,2,1,3.4C82.8,54.1,83.5,52.8,82,52z"/>
<path class="st1" d="M53.6,108.3c8.5-4.6,11.5-12.2,11.7-21.3c11.2,6.9,13.6,6.9,24.9,2.4c0.7,5.4,2.8,10.2,6,14.6
	c2.7,3.6,2.9,3.8-0.1,7.2c-9.7,11.4-21.1,13.6-34.4,5.9c-3-1.7-5.6-3.8-7.4-6.9C54,109.6,53.5,109,53.6,108.3z"/>
<path class="st1" d="M74.8,124.8c-3.8,9.1-14.3,12.3-22.1,6.8c-6.4-4.4-11.7-9.8-15-17c-1.1-2.4-2-4.9-2-7.9
	c2.8-0.1,5.5-1.6,8.4,0.4c2,1.4,4.3,2,7,1.2C55.4,118.7,64.8,122,74.8,124.8z"/>
<path class="st1" d="M81.2,124c9.6-1.7,16.1-7.5,20.5-15c4.8-0.5,8.9,1.5,13.3,0.4c0.2,0.9-0.3,1.6-0.7,2.2
	c-4.2,7.3-9.2,13.8-16,18.9C91.1,135.8,83.4,133,81.2,124z"/>
<path class="st1" d="M51.5,62.5c-3.7-1.3-3.9-4.1-4.3-6.6c-0.6-3.1,0.1-4.4,2.2-5.7C51.5,53.9,50.1,58.1,51.5,62.5z"/>
<path class="st1" d="M104.7,59.9c0.8-3.1-0.5-6.6,1.6-9.6C108,52.1,107.3,56.1,104.7,59.9z"/>
<path class="st0" d="M71.5,75.2c5,1.2,9.9,0.5,14.9,0.1c-1.6,2.1-3.7,2.6-6.1,3c-0.4,0.6,1,1.9-0.7,2.2c-1.3,0.2-2.8,0-2.9-1.1
	c-0.2-1.7-1.2-1.7-2.2-2.1C73.4,76.9,72.1,76.7,71.5,75.2z"/>
<path class="st0" d="M92.6,52.8c-1.4,1.6-3,2.6-4.9,0.7c-0.4-0.4-0.7,0-1,0.3c-0.6,0.7-1.2,0.5-1.7-0.1c-0.5-0.6-0.1-1.2,0.2-1.8
	c1.7-2.6,6.4-2.8,9.3-0.4c0.9,0.8,1.8,1.6,2.8,2.5C96.1,55.4,96.1,55.4,92.6,52.8z"/>
<path class="st0" d="M64.1,53.1c-1.5,1-2.7,2.5-4.6,1.2c3.6-4.5,6.1-5.5,9.7-3.6c1.4,0.7,2.8,1.5,2.1,3.5c-1.2,0.4-1.5-0.7-2.3-1
	C67.5,55.6,65.8,54.8,64.1,53.1z"/>
<path class="st0" d="M60.2,46.5c3.4-2.8,10.3-2.7,12.4,0.4C68.1,45.6,64.2,48.3,60.2,46.5z"/>
<path class="st0" d="M75.4,66.3c2.2,2.5,5-0.6,7.6,0.9C80.1,69.9,76.6,69.6,75.4,66.3z"/>
<path class="st0" d="M73.6,52.1c2.3,1,2.3,1,1.2,3.2C73.3,54.6,74,53.3,73.6,52.1z"/>
<path class="st0" d="M82,52c1.4,0.8,0.8,2.1,1,3.4C81.1,54,81.1,54,82,52z"/>
</svg>
