<?xml version="1.0" encoding="utf-8"?>
<!-- Generator: Adobe Illustrator 19.1.0, SVG Export Plug-In . SVG Version: 6.00 Build 0)  -->
<svg version="1.1" id="Calque_1" xmlns="http://www.w3.org/2000/svg" xmlns:xlink="http://www.w3.org/1999/xlink" x="0px" y="0px"
	 viewBox="0 0 148 150" style="enable-background:new 0 0 148 150;" xml:space="preserve">
<style type="text/css">
	.st0{fill:#283449;}
	.st1{fill:#FEFEFE;}
</style>
<path class="st0" d="M101.5,89.1c-0.8,7.1-3.1,13.5-6.6,19.5c-0.7,1.3-1.6,2.5-2.5,3.7c-0.7,1-1.7,1.5-3,1c-0.6-1,0-2,0.3-2.9
	c0.8-2.3,1.1-4.7,0.7-7.1c-0.2-1.6-0.6-2.3-2.9-1.8c-5.3,1.4-8.2,5.4-11.8,8.8c-1.4,1.3-2.2,3.1-2.2,4.9c0,5.7-2.2,11.1-3,16.7
	c-0.5,3.7-0.3,7.3,0.3,10.9c0.1,0.9,0.5,1.8,0.2,2.7c-1.4,0.4-1.8-0.5-2.1-1.5c-1.2-3.8-1.5-7.6-1.1-11.6c0.7-6.2,3.1-12.1,3.1-18.4
	c0-2.1,1.1-4,2.6-5.5c-1.5-3.1-2.2-6.3-3.9-9.2c-1.7-3.1-3.7-5.9-6.4-8.2c-2.1-1.7-3.6-3.9-5.4-5.9c-1.5-1.8-1.1-4.1-1.7-6.8
	c-2.3,4.4-3.5,8.4-1.5,12.4c2.7,5.4,5.4,10.8,7,16.8c4-6.2,4-6.2,7-5.7c-4.4,2.6-4.1,7.3-6.1,11c-1.4-0.1-2-1.2-2.4-2.4
	c-1-2.6-2.1-5.3-2.9-8c-1.6-5.4-4.8-10-6.7-15.4c-8,5.2-16.9,7.8-25.9,10.3c-2.3,0.6-4.4,1.7-6.3,3c-0.6,0.4-1.3,1-1.4,1.7
	c-2.2,7.8-6.2,14.9-8.4,22.6c-1.6,5.6-3.4,11.1-4.5,16.9c-0.3,1.8-0.4,3.7-0.6,5.8c-2.3-0.9-3.5-2-3-4.6c1.2-6.8,3.4-13.3,5.3-20
	c1.9-6.7,5.2-12.8,7.2-19.3c1.8-6,6.1-7.6,11-9c8.8-2.4,17.3-5.5,25.3-9.7c1.1-0.6,1.8-1.3,2.1-2.5c0.8-2.6,1.9-5,4.4-6.4
	c1.1-0.6,1.2-1.7,0.5-2.6c-2.1-3-2.5-6.5-3.1-9.9c-0.2-0.9-0.2-1.8-1.5-1.8c-0.6,0-0.9-0.6-1.2-1.1c-2.4-4-3.8-8.1-1.4-12.7
	c0.5-0.9,0-1.6-0.3-2.4c-1.7-5-2.7-10.1-1.9-15.4c1.1-7.7,4.9-13.5,11.8-17.1c1-0.5,1.5-1.3,2.1-2c7.6-9.3,23.4-11.8,33.1-5
	c3.7,2.6,6.2,6.1,5.3,11c-0.2,1,0.2,1.5,0.9,2.1c6.1,4.8,8.1,13.1,4.9,20.2c-1.1,2.3-2.2,4.7-3.3,7.2c3.5,1.7,2.8,4.8,2.3,7.6
	c-0.4,2.2-1.2,4.3-2,6.4c-0.6,1.6-1.5,3.1-3.4,3.3c-1.3,0.2-1.5,1.2-1.8,2.1c-0.8,2.4-1.4,4.8-2.5,7c-0.7,1.4,0.7,2.5,0.2,3.8
	c4.5,1.2,6.7,4.3,7.2,8.6c0.2,2.1,2,2.3,3.4,2.8c4.3,1.6,8.7,2.9,13,4.4c5.9,2,11.8,4,17.2,7.3c4.3,2.7,6.9,6.1,6.8,11.3
	c-0.1,3.1,1.2,6,2,8.9c2.1,7.7,3.2,15.6,4.8,23.4c0.2,0.8,0.6,2.2-0.8,2.2c-1.2,0-2.3-0.9-2.6-2.2c-0.4-2.2-1-4.4-1-6.7
	c0-5.9-2-11.4-3.3-17.1c-0.9-3.8-2.4-7.4-2.4-11.4c0-3.1-2-5-4.6-6.6c-6.7-4.2-14.4-6.1-21.7-8.8C108.7,91.6,105.2,90.4,101.5,89.1z
	 M97.3,34.4c0-3.8,0.2-7.7-2.8-10.5c-2.8-2.7-6.1-4.6-10-5.2c-8.6-1.5-16.3,0.4-23.2,5.9c-2,1.6-3.4,3.5-4.3,5.9
	c-1.4,3.9-2.4,7.9-3.7,11.9c-0.8,2.7-1,5.4-0.4,8.1c1,4.2,1.4,8.5,2.2,12.7c1.4,7.5,5,13.6,12.2,17.2c6,3,15,1.6,19.8-3
	c3.1-3,5.1-6.6,6.4-10.8c1.6-5.4,3.4-10.9,3.3-16.3C96.8,45,97,39.7,97.3,34.4z M74.9,106.4C86.3,98.7,94,84.6,90.9,77.6
	c-10.8,8.8-21.4,8.4-32-0.3c-0.7,4.9,0.9,8.7,4.6,11.8c1.4,1.1,2.8,2.4,4.1,3.6C71.4,96.5,73.5,101.3,74.9,106.4z M94.2,77.9
	C94,86,91.9,93.1,87.3,99.5c5,0.2,5,0.2,6.4,4.9c2.7-6.9,5.4-13.4,4.4-20.7C97.7,81.4,96.9,79.2,94.2,77.9z M101.1,49.2
	c-0.3-0.1-0.5-0.1-0.8-0.2c-0.8,3.7-1.7,7.4-2.5,11C100.5,56.8,101.8,53.2,101.1,49.2z"/>
<path class="st0" d="M23.9,147.7c-2.2,0.7-2.6-0.8-2.9-2.1c-0.7-3-0.9-6.1-0.6-9.2c0.1-1.5-0.3-2.7-0.9-4c-3.4-7.7-3-15.5-0.8-23.4
	c0-0.1,0.2-0.2,0.5-0.4c1.6,0.3,2.4,0.9,2,3c-1.2,6.2-2.1,12.6,0.4,18.5c2,4.6,1.8,9.1,1.9,13.8C23.4,145,23.7,146.3,23.9,147.7z"/>
<path class="st0" d="M131,108.6c1.4,0,2.1,0.6,2.6,2c2.3,7.4,1.4,14.6-1.5,21.7c-0.7,1.6-0.8,3-0.4,4.6c0.7,2.4,1,4.9,0.5,7.4
	c-0.1,0.8-0.2,1.6-1.2,1.5c-0.9-0.1-1.7-0.7-1.5-1.7c0.7-3.3,0-6.4-0.9-9.6c-0.2-0.6-0.1-1.4,0.2-2c2.9-7.4,4.1-14.9,2-22.7
	c-0.1-0.2,0-0.5,0-0.7C130.8,109,130.9,108.8,131,108.6z"/>
<path class="st0" d="M78.3,121.5c-1.8-0.3-3.2-0.9-3.2-2.7c0-1.5,1.1-2.2,2.5-2.2c1.5,0,2.7,0.7,2.5,2.4
	C80.1,120.2,79.7,121.5,78.3,121.5z"/>
<path class="st0" d="M75.1,134.6c-1-0.2-2.4,0-2.3-1.6c0.1-1.5,1.1-2.7,2.6-2.7c1.2-0.1,2.1,0.9,2,2
	C77.4,133.6,76.5,134.5,75.1,134.6z"/>
<path class="st1" d="M94.2,77.9c2.7,1.3,3.5,3.5,3.8,5.8c1.1,7.3-1.6,13.8-4.4,20.7c-1.4-4.6-1.4-4.6-6.4-4.9
	C91.9,93.1,94,86,94.2,77.9z"/>
<path class="st0" d="M69.3,47.6c0,0.2-1.7-0.9-2.4,0.6c-0.5,1.1-2.1,0.7-3.2,0.4c-1-0.2-1.7-2.3-3.2-0.7c-0.1,0.1-0.9-0.6-0.6-1.1
	c1.6-2.3,4-2.4,6.4-2.3C68,44.5,69.7,45,69.3,47.6z"/>
<path class="st0" d="M81.1,67.8c-0.2,2.8-5,0.6-4.3,4.3c-1.6,0-3.5,1.2-3.8-1.8c0-0.4-1.3-0.6-1.9-0.9c-0.8-0.4-2-0.4-2.5-1.8
	c2.2-0.3,4.1,1,6.2,1.1C76.9,68.7,78.9,67.7,81.1,67.8z"/>
<path class="st0" d="M80.7,47.1c4.2-3.2,8.4-2.6,10.2,1c-1.7,0.4-3.3,0.9-5,1.2C83.8,49.6,83.2,46.9,80.7,47.1z"/>
<path class="st0" d="M70.7,41.9c-4.2,0.2-7.7-2.4-11.5-0.7C61.4,38.5,68.2,38.8,70.7,41.9z"/>
<path class="st0" d="M80.6,41.9c3.5-1.5,7.1-2.5,10.8-0.4C87.9,42.6,84.2,41.7,80.6,41.9z"/>
<path class="st0" d="M71.4,58.8c2.6,0.8,4.8,0.9,7.5,0.1c-1.1,2.4-2.7,2.2-4.1,2.1C73.6,61,72.2,60.9,71.4,58.8z"/>
</svg>
