<?xml version="1.0" encoding="utf-8"?>
<!-- Generator: Adobe Illustrator 19.1.0, SVG Export Plug-In . SVG Version: 6.00 Build 0)  -->
<svg version="1.1" id="Calque_1" xmlns="http://www.w3.org/2000/svg" xmlns:xlink="http://www.w3.org/1999/xlink" x="0px" y="0px"
	 viewBox="-31 7 148 150" style="enable-background:new -31 7 148 150;" xml:space="preserve">
<style type="text/css">
	.st0{fill:#212D42;}
	.st1{fill:#FEFEFE;}
	.st2{fill:none;stroke:#212D42;stroke-width:4;stroke-miterlimit:10;}
</style>
<path class="st0" d="M69.9,73.3c1.1,0.3,1.2,0.9,1.1,1.7c-0.7,5.2-2.2,10.1-4.9,14.7c-0.2,0.4-0.5,0.7-0.8,1.3
	c3.7,1.1,5.9,4,8.5,6.5c0.8,0.7,1.6,1.3,2.6,1.7c6.3,2.6,10.5,7.4,13.5,13.4c1.6,3.2,2.1,6.7,2,10.2c0,0.9-0.7,2.5-2.2,2.6
	c-4.5,0.3-9.2,1.1-13.7-0.2c-1.5-0.4-3,0.1-4.4,0.3c-3.3,0.6-6.7,0.1-10,0.4c-0.9,0.1-1.8-0.3-1.3-1.6c1.6-4.7,2-9.6,2.4-14.6
	c0.1-1.1,0.3-2.3,0.4-3.4c-0.8,0-0.7,0.7-0.9,1.1c-0.9,1.8-1.7,3.7-3.4,5c-0.5,0.4-0.9,0.9-1.6,0.6s-0.5-1-0.5-1.6
	c0.1-1.2,0.3-2.4-0.2-3.8c-0.9,1.3-1.4,2.7-2.6,3.5c-0.5,0.3,0,0.8,0.1,1.2c1.1,3.8,2.2,7.6,2.2,11.6c0,0.4,0.1,0.8,0,1.1
	c-0.1,0.5-0.2,1.1-0.9,1c-0.6-0.1-0.8-0.5-0.8-1.1c0.1-4.5-1.4-8.6-2.3-13c-1.1,0.1-2.2,0.3-3.4-0.1c-1.2,4.5-1.1,9-1.2,13.3
	c0,0.7,0.3,1.6-0.7,1.7c-1.1,0.1-0.9-1-1-1.6c-0.1-3.4-0.3-6.9,0.7-10.3c0.6-2.2,1.1-4.2-0.2-6.3c-0.3-0.4-0.3-0.9-0.4-1.6
	c-1.4,1.3-2,2.9-2.4,4.5c-0.1,0.6-0.1,1.4-0.9,1.6c-0.9,0.2-1.3-0.4-1.8-0.9c-2-2.2-3.8-4.7-5.3-7.2c-0.5-0.9-0.9-2-2.3-2.6
	c1.4,3.8,2.6,7.4,4,10.9c1.9,4.3,3.8,8.8,6.3,12.8c0.7,1.1,0,1.3-0.9,1.4c-4.5,0.7-9,0.1-13.4,0.4c-5.7,0.4-11.4-0.3-17.1,0.5
	c-1.8,0.2-3.5,0.2-5.2-0.3c-1.8-0.6-3.8-0.5-5.7-0.4c-1.4,0.1-2.8-0.1-4.1-0.4c-1.7-0.4-2.4-1.5-2.4-3.7c0-4.7,0.9-9.4,2.4-13.9
	c1.7-5.4,6.2-8.6,11.4-10.7c2.5-1,5.1-1.5,7.7-2.2c3.3-0.9,6.3-2.2,8.1-5.6c1-1.9,3-3,5.1-3.7c1.3-0.5,2.1-1.3,3.2-2
	c3.4-2.4,3.2-6,3.7-9.4c0.1-0.7-0.2-1.1-0.9-1.6c-2.8-2-4.5-4.7-5.1-8.1c-0.3-1.8,0.1-3.6,1.3-4.9c0.8-0.9,0.9-1.7,0.5-2.7
	c-1.3-3.9-1.1-7.8,0.7-11.4c1.7-3.4,3-7.2,6-9.7c4.5-3.6,9.6-6.3,15.7-5.1c1.3,0.3,2.4,0.7,3.5,1.4c0.8,0.5,1.5,0.7,2.4,0.5
	c4.2-0.9,9.9,1.6,11.7,5.9c1.1,2.9,3,5.3,4.2,8c1.5,3.5,1.2,6.9-0.6,10.1c-0.9,1.6-1.6,3.2-3,4.5c2.6,1.6,3.4,3.8,2.1,6.6
	c-1.1,2.6-4.2,4-6.8,3.1c-1.7-0.6-3.4-1.1-4.5-2.8c-0.7-1.1-1.1-2.2-0.9-3.4c0.2-1.8-0.7-1.9-2.1-1.7c-0.2,1.4-0.5,2.6-1.1,3.8
	c-0.9,1.7-2.4,2.4-4.2,2.4c-2.2-0.1-4.3-0.4-6.5-0.9c-2.4-0.5-3.9-2-4.3-4.4c-0.2-1.4-0.8-2-2.1-2.2c-1.2-0.2-2.3-0.6-3.5-0.9
	c-1.3,1.2,0.1,3.2-1.6,4.5c-0.6-1.4-0.9-2.8-1.6-3.8c-0.7-1-1.4-1.9-2.6-1.6c-1.3,0.3-1.4,1.6-1.5,2.6c-0.1,2.8,1.1,5.3,3.1,7.2
	c1.8,1.7,3.1,3.5,3.9,6c2,6.8,6.9,11.3,13.2,14.3c3.2,1.5,6.6,1,9.8-0.2c1.5-0.6,2.6-1.8,3.4-3.2c2.4-4.1,3.3-8.7,4.4-13.2
	C69.6,74.6,69.7,74.1,69.9,73.3z M55.7,40.5c0.3-0.2,0.5-0.1,0.8,0.3C56.1,40.7,55.9,40.7,55.7,40.5c-1.4-1.5-3-0.6-4.5-0.5
	C52.8,39.8,54.3,40,55.7,40.5z M62.6,40.8c1.3-0.6,2.6-1.2,3.9-1.8c-1.6,0-3,0.4-4.1,1.6c-0.3,0.1-0.6,0.2-0.5,0.6
	C62.4,41.4,62.5,41.1,62.6,40.8z M44.1,43.8c-1.1,1.1-2.5,2-2.4,3.9c0.1,2.1-0.7,3.8-1.8,5.5c-0.3,0.5-0.9,0.9-0.9,2.2
	c1.5-2.2,3.2-3.8,3.2-6.3c0-1.6,0.5-2.8,1.5-4c0.3-0.3,0.6-0.7,0.5-1.1c0.4-0.3,0.7-0.5,0.9-1C44.3,42.8,44.3,43.4,44.1,43.8z
	 M71.1,63c0.5-2.3,0.9-4.6,1.3-6.9c1.4-8-5.7-12.4-11.3-12.2c-0.6,0-1.3,0.2-1.8,0c-2.5-0.9-5.1-0.8-7.6-1c-0.9-0.1-1.6,0.1-2.4,0.5
	c-2.8,1.3-3.8,3.8-4.3,6.6c-0.2,1.4-0.9,2.6-1.5,3.8c-1.4,2.4-3.2,4.7-4.1,7.6c1.7,0.4,3.4,0.8,4.9,1.1c0.9-2.8,1.4-3.2,4.3-3.2
	c2.8,0.1,5.5,0.5,8.3,0.9c1.9,0.3,3.2,1.3,3.9,3.4c0.9-0.7,2,0.7,2.6-0.3c0.7-1.4,1.8-1.2,3-1.1C67.7,62.4,69.4,62.7,71.1,63z
	 M34.3,85.2c-0.5-0.1-0.7,0.3-0.9,0.6c-1.8,2.6-2.1,5.5-1.1,8.4c1.5,4.5,4,8.6,6.7,12.6c1,1.4,1.8,2.9,3.4,4
	c1.3-4.3,4.1-7.4,7.4-9.6C43,97.2,36.4,93.4,34.3,85.2z M37.5,80.1c-0.8,1.3-0.5,2.7-1.3,3.8c-0.7,0.9-0.5,1.8-0.1,2.8
	c0.7,1.4,1.3,2.8,2.4,3.9c3.6,3.6,7.4,7,12.4,8.6c0.5,0.2,1,0.5,1.4,0.8c2.6-1.2,4.7-3,6.3-5.5c-0.8,0.1-1.4,0.2-2,0.2
	c-0.7,0-1.3,0-2-0.1c-6.2-1.1-10.5-5-14.4-9.6C39.2,83.7,38.5,81.8,37.5,80.1z M54.2,69.4c1.3-0.2,2.8,0.1,3.5-1.3
	c0.7-1.3,1-2.6,1-4c0-1.3-0.6-2.2-1.8-2.4c-3.2-0.7-6.5-1.1-9.7-1c-0.8,0-1.4,0.4-1.6,1.2c-0.4,3.3,0.1,6.3,4.1,7
	C51.2,69.2,52.7,69.2,54.2,69.4z M58.5,109.6c3.8-3.4,5.8-12.1,3.4-16.1c-2.7,2.4-4.3,5.9-8.1,7.3C56.9,103,58.2,106,58.5,109.6z
	 M64,66.7c0,2.2,0.7,3.2,2.8,3.9c1.1,0.3,2.2,0.6,3.4,0.7c2.4,0.1,4.5-3.1,3.6-5.3c-0.2-0.5-0.5-0.8-1.1-1c-1.8-0.5-3.5-1.1-5.3-1.4
	C64.4,63.1,64,63.6,64,66.7z M47.7,104.6c-0.9,1.4,0.1,2.6,0.3,3.9c0.4,1.6,1.8,1.9,3.1,1.6c0.9-0.2,1.8-0.6,2.7-1.1
	c1.1-0.7,1.4-2,2.7-2.5c-0.2-0.5-0.4-1-0.6-1.4C53,107,50.4,106.3,47.7,104.6z M55.1,103.8c-0.3-1.5-2.3-1.6-2.4-3.5
	c-1,1.7-3,1.7-3.7,3.5C51.1,104.6,53.1,104.7,55.1,103.8z M45.3,40.7c-3.6,0.7-7.2,4.9-5.8,8.3C39.4,45,42.3,43,45.3,40.7z
	 M44.9,38.5c-3.4,0.6-7,4.4-6.9,7.2C39.5,42.6,42.1,40.6,44.9,38.5z M37.3,54.4c0.9-1.1,1.8-2.3,1.7-3.8
	C38.5,51.9,37.9,53.2,37.3,54.4z M38.8,55.5c0.1-0.1,0.1-0.2,0.3-0.3c-0.1-0.1-0.2-0.1-0.2-0.1c-0.1,0.1-0.2,0.1-0.3,0.3
	C38.5,55.4,38.7,55.5,38.8,55.5z"/>
<path class="st0" d="M60.1,85.1c0.1,0.5,0.3,1.1-0.5,1.3c-0.9,0.2-1.8-0.1-2.6-0.7c0.8-1,1.8,0.1,2.8-0.7c-1-0.1-1.8-0.3-2.6-0.4
	c-0.7-0.1-1.4-0.3-2-0.5c-0.5-0.3-1.5-0.5-1.3-1.3c0.4-1,1.1-0.1,1.6,0.1c2,0.7,4.2,0.8,6.3,0.7c0.5,0,1.1-0.4,1.4,0.5
	C62.6,85.3,61.2,84.7,60.1,85.1z"/>
<path class="st0" d="M34.7,66.6c0.1-1.1-1.3-1.9-0.7-3.4c1.3,1.4,2,2.8,2.3,4.5c0.1,0.6,0.1,1.4-0.6,1.5c-0.6,0.1-1.4,0-1.8-0.7
	c-0.3-0.7-0.3-1.3,0.5-1.6C34.6,66.8,34.7,66.6,34.7,66.6z"/>
<path class="st0" d="M42.3,79.3c-1-2.8,0.2-6.1,2.5-7.2C43.2,74.1,42.2,76.6,42.3,79.3z"/>
<path class="st0" d="M63.2,76.8c-1.4,1.7-3.6,1.7-4.5,0.3c-0.2-0.3-0.3-0.5,0-0.7c0.1-0.1,0.5-0.2,0.6-0.1c0.6,0.3,1,0.9,1.7,0.8
	C61.7,77.1,62.3,77,63.2,76.8z"/>
<path class="st0" d="M44.7,75.1c-0.5,2.4-0.9,4.7-0.9,7.4C42.6,80.4,43.2,76.9,44.7,75.1z"/>
<path class="st0" d="M63.9,85.1c0.3-1-0.3-1.8,0.3-2.6C65.1,83.7,65.1,83.8,63.9,85.1z"/>
<path class="st0" d="M54.1,81c-0.5,0.9-0.7,1.9-1.8,2.7C52.4,82.2,52.9,81.4,54.1,81z"/>
<path class="st1" d="M44.3,44c0.1,0.5-0.3,0.9-0.5,1.1c-1.1,1.1-1.5,2.4-1.5,4c0,2.4-1.8,4-3.2,6.3c-0.1-1.3,0.5-1.6,0.9-2.2
	c1.1-1.6,2-3.4,1.8-5.5c-0.1-1.8,1.3-2.8,2.4-3.9C44.1,43.9,44.2,43.9,44.3,44z"/>
<path class="st1" d="M45.3,40.7c-3,2.3-5.9,4.3-5.8,8.3C38.2,45.6,41.8,41.3,45.3,40.7z"/>
<path class="st1" d="M44.9,38.5c-2.8,2-5.4,4-6.9,7.2C37.8,43,41.5,39.1,44.9,38.5z"/>
<path class="st1" d="M37.3,54.4c0.6-1.3,1.1-2.6,1.7-3.8C39.1,52.2,38.3,53.3,37.3,54.4z"/>
<path class="st1" d="M62.4,40.7c1.1-1.3,2.4-1.6,4.1-1.6c-1.3,0.6-2.6,1.2-3.9,1.8C62.5,40.8,62.5,40.7,62.4,40.7z"/>
<path class="st1" d="M55.7,40.5c-1.4-0.5-3-0.7-4.5-0.5C52.8,39.9,54.4,38.9,55.7,40.5L55.7,40.5z"/>
<path class="st1" d="M44.1,43.8c0.2-0.4,0.3-1,1.1-0.8c-0.1,0.5-0.5,0.7-0.9,1C44.2,43.9,44.1,43.9,44.1,43.8z"/>
<path class="st1" d="M55.7,40.4c0.1,0.3,0.4,0.2,0.9,0.3C56.1,40.3,55.9,40.3,55.7,40.4C55.7,40.5,55.7,40.4,55.7,40.4z"/>
<path class="st1" d="M62.6,40.8c-0.1,0.4-0.3,0.6-0.7,0.5c-0.1-0.4,0.2-0.5,0.5-0.6C62.5,40.7,62.5,40.8,62.6,40.8z"/>
<path class="st1" d="M38.8,55.5c-0.1-0.1-0.2-0.1-0.3-0.2c0.1-0.1,0.2-0.2,0.3-0.3c0.1,0,0.1,0.1,0.2,0.1
	C38.9,55.3,38.9,55.5,38.8,55.5z"/>
<path class="st0" d="M56.3,57.8c-0.6,0.5-4.3,0.5-6.7-0.2C50.5,56.3,54.4,56.4,56.3,57.8z"/>
<path class="st0" d="M64.7,60c1.4-1.1,5.3-0.6,6,0.3c0.2,0.3,0.2,0.5,0,0.7c-0.2,0.3-0.5,0.5-0.9,0.3c-0.8-0.3-1.6-0.8-2.4-0.9
	C66.7,60.3,65.9,60.1,64.7,60z"/>
<path class="st0" d="M55.9,64.4c-0.7,0.9-4.8,1.6-5.7,1.1C51.5,63.8,53.8,63.2,55.9,64.4z"/>
<path class="st0" d="M65.5,66.9c0.5-1.4,1.4-1,2.2-0.9c0.9,0.2,1.8,0.6,1.8,1.5c0.1,0.7-0.5,1-1.1,0.5C67.6,67.3,66.7,67,65.5,66.9z
	"/>
<path class="st0" d="M70.8,70.5c0-2,1.3-3.4,0.8-5.1c1.3,0.4,1.1,1.4,1.1,2C72.4,68.5,72.5,69.8,70.8,70.5z"/>
<circle class="st2" cx="43.2" cy="80.9" r="69.2"/>
</svg>
