<?xml version="1.0" encoding="utf-8"?>
<!-- Generator: Adobe Illustrator 19.1.0, SVG Export Plug-In . SVG Version: 6.00 Build 0)  -->
<svg version="1.1" id="Calque_1" xmlns="http://www.w3.org/2000/svg" xmlns:xlink="http://www.w3.org/1999/xlink" x="0px" y="0px"
	 viewBox="-31 7 148 150" style="enable-background:new -31 7 148 150;" xml:space="preserve">
<style type="text/css">
	.st0{fill:none;stroke:#212D42;stroke-width:4;stroke-miterlimit:10;}
	.st1{fill:#283449;}
	.st2{fill:#FEFEFE;}
</style>
<circle class="st0" cx="43.2" cy="80.9" r="69.2"/>
<path class="st1" d="M55.9,78.2c3.5,0.4,4.2,3,5,5.6c0.2,0.6,0.4,1.1,1,1.4c5.1,2.7,10,5.9,14.9,8.9c1.6,1,3.4,1.9,5.1,2.7
	c2.7,1.3,5,3,7,5.2c1.2,1.2,2.1,2.7,2.2,4.3c0.1,2.8,1.1,5.4,1.7,8c0.6,3,0.4,5.9-0.1,8.9c-0.2,0.9-0.5,1.7-1.7,1.4
	c-1.2-0.2-1.1-1-0.8-1.8c1.1-4.9,0.5-9.7-1.3-14.4c-0.3-0.6-0.4-1.4-0.4-2c0.3-2-0.6-3.4-2.1-4.7c-1.4-1.2-3-2.3-4.6-3.1
	c-4.6-2.2-8.9-4.9-13.1-7.8c-2.2-1.5-4.8-2.5-7.2-4.4c0.4,2.9,1,5.3,1.6,7.7c1,3.7,0.2,7.2-1.2,10.6c-0.4,1-1.2,1-2,0.4
	c-1.1-0.8-1.7-1.9-2.5-3c-0.5-0.7-0.9-1.5-1.5-2.2c-1.9-2.3-2.2-2.3-4.9-1.3c-0.7,0.3-1.5,1.1-2.3-0.2c2.1-1,3.9-3,6.5-1.5
	c2.2,1.2,3.4,3.2,4.9,5.6c1.1-3.4,1.8-6.2,0.6-9.4c-1.1-3-1.7-6.2-2.1-9.4c-0.2-1.5-0.8-2.9-1.9-4.4c0,5.8-1.2,10.7-4.8,14.8
	c-2.5,2.8-5.8,4.5-8.9,6.4c-1.4,0.8-2,1.8-2.7,3.6c-1.9,5.5-1,11.2-1.7,16.7c-0.3,2.3-1.3,4.5-0.5,6.8c-1.2,0.4-1.6-0.2-1.8-0.8
	c-0.4-0.9-0.6-1.9-0.4-2.9c1.1-4.6,1-9.3,1.1-13.9c0.1-2,0.6-3.8,1.1-5.7c0.1-0.2,0.3-0.4,0.2-0.6c-0.4-2.9,1.7-3.7,3.7-5
	c3.2-2,6.8-3.7,9.2-7c2-2.7,3-5.9,3.5-9.3c0-0.2-0.1-0.4-0.2-1.1c-3,3.8-7,5-11.4,4.9c-4.7-0.1-7.8-3-10.5-6.5
	c-1.6,4.9,1.2,13.2,5.5,16c0.2,0.1,0.4,0.2,0.6,0.4c0.6,0.6,2.4,0.8,1.7,1.9c-0.6,0.9-1.8-0.2-2.6-0.7c-5-3-7.4-7.5-7.7-13.1
	c-0.1-0.8-0.1-1.6-0.1-2.5c-4.9,2.1-8.9,9.2-10.8,19.4c1.6-1.3,2.5-3,4.1-4.2c1.2-1,2.5-1.8,3.9-2.4c0.7-0.4,1.4-0.6,2,0.1
	c0.1,0.1,0.3,0.4,0.6,0.3c3.4-1,4.4,2.1,6.5,3.7c-0.9,0.8-1.5,0.6-2.2,0.1c-0.6-0.5-1.3-1.1-1.8-1.6c-2.3-2.2-3-2.1-5.6-0.2
	c-2.4,1.8-4.1,4.2-6.3,6.1c-0.7,0.6-1.3,0.8-2.3,0.8c-1.5-0.1-2-0.7-1.4-2.1c1.4-3.4,1.5-7.2,3-10.6c-0.2-0.3-0.4-0.3-0.6-0.2
	c-5.8,2.4-11.7,4.5-17,8c-1.1,0.7-2.3,1.5-3.1,2.6c-0.8,1.1-1.4,2-0.9,3.5c0.4,1.5-0.1,3.2-0.6,4.6c-1.8,4.9-2.8,10.1-4.2,15.2
	c-0.2,0.7-0.2,1.5-0.2,2.3c0,0.6-0.1,1.2-0.7,1.3c-0.6,0.1-1.2-0.4-1.3-1.1c-0.2-1.5-0.4-2.9,0.1-4.4c1.4-5.4,2.7-10.9,4.1-16.3
	c0.1-0.5,0.4-1.1,0.3-1.5c-0.5-4.1,2-6.5,5-8.4c5-3,10.3-5.2,15.7-7.5c1.7-0.8,3.4-1.6,5.1-2.3c0.6-0.2,0.8-0.6,1.1-1.1
	c1.8-2.8,4.2-4.8,7-6.5c1.3-0.8,1.2-2.4,0.8-3.6c-0.8-2.6-1.3-5.4-3.7-7.3c-2-1.7-2.3-4.4-2-7.1c0.2-1.9-0.5-3.9-0.8-5.8
	c0-0.1-0.1-0.2-0.1-0.4c0.3-2.7-1.3-5.1-0.8-7.9c0.3-1.4,0.9-3,0.4-4.6c-0.1-0.4,0.2-0.8,0.4-1.1c0.5-0.8,1-1.4,0.3-2.3
	c-0.1-0.2-0.1-0.7,0.1-1c1.5-2.4,2.8-4.9,5.1-6.8c1.9-1.5,4.2-2.5,6.3-3.7c3.1-1.8,6.5-2.2,10-1.7c2.1,0.3,4.4-0.3,5.9,1.9
	c0.1,0.2,0.6,0.1,1,0.1c2.8,0.4,5.1,1.7,6.5,4.2c0.7,1.2,1.3,2.3,2.8,2.7c1.1,0.4,1.4,1.5,1.5,2.6c0.1,1,0.5,1.8,1.1,2.5
	c0.3,0.4,0.6,0.6,0.5,1.1c-0.4,2.5,0.4,5-0.4,7.6c-0.9,3-1.1,6.3-1.6,9.4c0,0.1,0.1,0.4,0.1,0.5c1.8,4.2,1,7.6-2.6,10.6
	c-0.6,0.5-1,1.1-1.2,1.9C58.1,73.5,57.3,75.9,55.9,78.2z M27.6,60.2c0,0.6-0.2,1.2,0.1,1.8c1.2,1.9,1.7,4.1,2.1,6.3
	c0.8,4.2,2.5,8.1,4.7,11.8c3.9,6.4,12.7,5.8,16.3,1.9c4.1-4.4,6.1-9.9,7.5-15.6c0.8-3.2,0.6-6.5,1-9.7c0.2-2,0.1-4.2-0.8-6.1
	c-1-1.9-1.3-3.9-1.6-6c-0.4-3.4-0.8-3.9-4.3-3.7c-0.4,0-0.7,0-1.1,0.1c-5.7,1.5-11.4,0.7-17,0.1c-1.5-0.1-2.3,0.1-2.9,1.5
	C28.6,48,27.6,54,27.6,60.2z M59.7,66.4c1.5-1.9,2.2-5.8,1.2-7c-0.4,2.3-0.9,4.4-1.3,6.5C59.6,66.1,59.7,66.2,59.7,66.4z M26.7,62.1
	c-0.1,0.1-0.3,0.1-0.5,0.1c-0.4,2.3,0.1,4.2,1.5,5.2C27.4,65.6,27,63.9,26.7,62.1z M54.5,81.3c-0.1-0.1-0.1-0.1-0.1-0.1
	c0,0.1-0.1,0.1-0.1,0.2c0,0,0.1,0.1,0.1,0.1C54.4,81.4,54.4,81.3,54.5,81.3z"/>
<path class="st1" d="M7.9,128.2c-1.6,0.3-2.3-0.8-2.8-1.9c-1.5-3.3-2.5-6.8-2.8-10.4c-0.1-1.5-0.1-3,0-4.4c0.1-0.7,0.1-1.5,0.7-2.1
	c1,0.3,1.5,0.8,1.5,1.8c-0.3,5.8,0.9,11.3,3.4,16.5C8,127.7,7.9,127.8,7.9,128.2z"/>
<path class="st1" d="M85.3,108c1.3,0.4,2,1.1,1.9,2.5c-0.1,4.3-1.3,8.2-3.7,11.8c-0.6,0.9-1.2,1-2,0.6c-0.9-0.5-0.6-1.2-0.2-1.8
	c2.5-3.7,3.7-7.9,3.8-12.4C85,108.6,85.2,108.3,85.3,108z"/>
<path class="st1" d="M45,104.3c-0.1,1.3-0.4,2.2-1.7,2.2c-1.1-0.1-2.2-0.6-2.2-1.8c0-1.3,1.1-1.9,2.3-2
	C44.6,102.5,44.8,103.5,45,104.3z"/>
<path class="st1" d="M40.9,121c1.5-0.1,2.3,0.5,2.3,1.4c0.1,0.8-0.3,1.8-1.5,1.5c-0.9-0.1-2.5,0.6-2.5-1C39.1,121.9,40,121,40.9,121
	z"/>
<path class="st2" d="M54.5,81.3c0,0.1-0.1,0.1-0.1,0.2c0-0.1-0.1-0.1-0.1-0.1s0.1-0.1,0.1-0.2C54.4,81.2,54.4,81.2,54.5,81.3z"/>
<path class="st1" d="M49.6,73.8c-0.9,1.3-2.4,1-3.6,1.5c0.1,1.8-0.8,2-4.6,1.1c0.1-2.2-2.2-1.4-3-2.5C38.6,73.7,48.7,73.5,49.6,73.8
	z"/>
<path class="st1" d="M47.2,58.3C49,56.1,53.5,56,55,58c0.2,0.3,0.4,0.5,0.1,0.8c-0.2,0.3-0.6,0.6-0.8,0.3c-1-0.8-1.8-0.7-2.7,0.1
	c-0.1,0.1-0.7,0.1-0.8-0.1C49.9,58,48.6,58.3,47.2,58.3z"/>
<path class="st1" d="M40.2,54.9c-3,0.6-5.9-0.1-8.8,0.7C32.8,53.5,38,53,40.2,54.9z"/>
<path class="st1" d="M55.3,54.9c-2.7,0.1-5.4-0.4-8.6-0.1C48.8,52.8,53.1,53,55.3,54.9z"/>
<path class="st1" d="M34.8,58.1c-0.8,0.1-1.5,0.6-2.3,0c1.9-1.9,6.1-1.8,7.3,0.4C37.9,58.3,36.2,60.7,34.8,58.1z"/>
<path class="st1" d="M41.1,66.4c2,1.8,3.9,1,6.1,0.4c-0.8,1.9-2.1,2.2-3.4,2.1C42.7,68.7,41.3,68.5,41.1,66.4z"/>
<path class="st1" d="M45.9,57.4c0.8,0.8,0.6,1.3,0.1,2.1C45.5,58.7,45.5,58.1,45.9,57.4z"/>
</svg>
