<?xml version="1.0" encoding="utf-8"?>
<!-- Generator: Adobe Illustrator 19.1.0, SVG Export Plug-In . SVG Version: 6.00 Build 0)  -->
<svg version="1.1" id="Calque_1" xmlns="http://www.w3.org/2000/svg" xmlns:xlink="http://www.w3.org/1999/xlink" x="0px" y="0px"
	 viewBox="-31 7 148 150" style="enable-background:new -31 7 148 150;" xml:space="preserve">
<style type="text/css">
	.st0{fill:none;stroke:#212D42;stroke-width:4;stroke-miterlimit:10;}
	.st1{fill:#283449;}
	.st2{fill:#FEFEFE;}
</style>
<circle class="st0" cx="43.2" cy="80.9" r="69.2"/>
<path class="st1" d="M62.5,86.3c-0.6,5.1-2.2,9.7-4.7,14c-0.5,0.9-1.1,1.8-1.8,2.6c-0.5,0.7-1.2,1.1-2.1,0.7c-0.4-0.7,0-1.4,0.2-2.1
	c0.6-1.6,0.8-3.4,0.5-5.1c-0.1-1.1-0.4-1.6-2.1-1.3c-3.8,1-5.9,3.9-8.4,6.3c-1,0.9-1.6,2.2-1.6,3.5c0,4.1-1.6,7.9-2.1,12
	c-0.4,2.6-0.2,5.2,0.2,7.8c0.1,0.6,0.4,1.3,0.1,1.9c-1,0.3-1.3-0.4-1.5-1.1c-0.9-2.7-1.1-5.4-0.8-8.3c0.5-4.4,2.2-8.7,2.2-13.2
	c0-1.5,0.8-2.9,1.9-3.9c-1.1-2.2-1.6-4.5-2.8-6.6c-1.2-2.2-2.6-4.2-4.6-5.9c-1.5-1.2-2.6-2.8-3.9-4.2c-1.1-1.3-0.8-2.9-1.2-4.9
	c-1.6,3.1-2.5,6-1.1,8.9c1.9,3.9,3.9,7.7,5,12c2.9-4.4,2.9-4.4,5-4.1c-3.1,1.9-2.9,5.2-4.4,7.9c-1-0.1-1.4-0.9-1.7-1.7
	c-0.7-1.9-1.5-3.8-2.1-5.7c-1.1-3.9-3.4-7.2-4.8-11c-5.7,3.7-12.1,5.6-18.5,7.4c-1.6,0.4-3.1,1.2-4.5,2.1c-0.4,0.3-0.9,0.7-1,1.2
	c-1.6,5.6-4.4,10.7-6,16.2c-1.1,4-2.4,7.9-3.2,12.1c-0.2,1.3-0.3,2.6-0.4,4.2c-1.6-0.6-2.5-1.4-2.1-3.3c0.9-4.9,2.4-9.5,3.8-14.3
	s3.7-9.2,5.2-13.8c1.3-4.3,4.4-5.4,7.9-6.4c6.3-1.7,12.4-3.9,18.1-6.9c0.8-0.4,1.3-0.9,1.5-1.8c0.6-1.9,1.4-3.6,3.1-4.6
	c0.8-0.4,0.9-1.2,0.4-1.9c-1.5-2.1-1.8-4.7-2.2-7.1c-0.1-0.6-0.1-1.3-1.1-1.3c-0.4,0-0.6-0.4-0.9-0.8c-1.7-2.9-2.7-5.8-1-9.1
	c0.4-0.6,0-1.1-0.2-1.7c-1.2-3.6-1.9-7.2-1.4-11c0.8-5.5,3.5-9.7,8.4-12.2c0.7-0.4,1.1-0.9,1.5-1.4c5.4-6.7,16.8-8.4,23.7-3.6
	c2.6,1.9,4.4,4.4,3.8,7.9c-0.1,0.7,0.1,1.1,0.6,1.5c4.4,3.4,5.8,9.4,3.5,14.5c-0.8,1.6-1.6,3.4-2.4,5.2c2.5,1.2,2,3.4,1.6,5.4
	c-0.3,1.6-0.9,3.1-1.4,4.6c-0.4,1.1-1.1,2.2-2.4,2.4c-0.9,0.1-1.1,0.9-1.3,1.5c-0.6,1.7-1,3.4-1.8,5c-0.5,1,0.5,1.8,0.1,2.7
	c3.2,0.9,4.8,3.1,5.2,6.2c0.1,1.5,1.4,1.6,2.4,2c3.1,1.1,6.2,2.1,9.3,3.1c4.2,1.4,8.4,2.9,12.3,5.2c3.1,1.9,4.9,4.4,4.9,8.1
	c-0.1,2.2,0.9,4.3,1.4,6.4c1.5,5.5,2.3,11.2,3.4,16.8c0.1,0.6,0.4,1.6-0.6,1.6c-0.9,0-1.6-0.6-1.9-1.6c-0.3-1.6-0.7-3.1-0.7-4.8
	c0-4.2-1.4-8.2-2.4-12.2c-0.6-2.7-1.7-5.3-1.7-8.2c0-2.2-1.4-3.6-3.3-4.7c-4.8-3-10.3-4.4-15.5-6.3C67.6,88.1,65.1,87.3,62.5,86.3z
	 M59.5,47.2c0-2.7,0.1-5.5-2-7.5c-2-1.9-4.4-3.3-7.2-3.7c-6.2-1.1-11.7,0.3-16.6,4.2c-1.4,1.1-2.4,2.5-3.1,4.2
	c-1,2.8-1.7,5.7-2.6,8.5c-0.6,1.9-0.7,3.9-0.3,5.8c0.7,3,1,6.1,1.6,9.1c1,5.4,3.6,9.7,8.7,12.3c4.3,2.1,10.7,1.1,14.2-2.1
	c2.2-2.1,3.7-4.7,4.6-7.7c1.1-3.9,2.4-7.8,2.4-11.7C59.1,54.8,59.2,51,59.5,47.2z M43.4,98.7c8.2-5.5,13.7-15.6,11.5-20.6
	c-7.7,6.3-15.3,6-22.9-0.2c-0.5,3.5,0.6,6.2,3.3,8.4c1,0.8,2,1.7,2.9,2.6C40.9,91.6,42.4,95.1,43.4,98.7z M57.2,78.3
	c-0.1,5.8-1.6,10.9-4.9,15.5c3.6,0.1,3.6,0.1,4.6,3.5c1.9-4.9,3.9-9.6,3.1-14.8C59.7,80.8,59.2,79.2,57.2,78.3z M62.2,57.8
	c-0.2-0.1-0.4-0.1-0.6-0.1c-0.6,2.6-1.2,5.3-1.8,7.9C61.7,63.2,62.7,60.6,62.2,57.8z"/>
<path class="st1" d="M6.9,128.3c-1.6,0.5-1.9-0.6-2.1-1.5c-0.5-2.1-0.6-4.4-0.4-6.6c0.1-1.1-0.2-1.9-0.6-2.9
	c-2.4-5.5-2.1-11.1-0.6-16.8c0-0.1,0.1-0.1,0.4-0.3c1.1,0.2,1.7,0.6,1.4,2.1c-0.9,4.4-1.5,9,0.3,13.2c1.4,3.3,1.3,6.5,1.4,9.9
	C6.5,126.3,6.8,127.3,6.9,128.3z"/>
<path class="st1" d="M83.6,100.3c1,0,1.5,0.4,1.9,1.4c1.6,5.3,1,10.5-1.1,15.5c-0.5,1.1-0.6,2.1-0.3,3.3c0.5,1.7,0.7,3.5,0.4,5.3
	c-0.1,0.6-0.1,1.1-0.9,1.1c-0.6-0.1-1.2-0.5-1.1-1.2c0.5-2.4,0-4.6-0.6-6.9c-0.1-0.4-0.1-1,0.1-1.4c2.1-5.3,2.9-10.7,1.4-16.3
	c-0.1-0.1,0-0.4,0-0.5C83.4,100.6,83.5,100.4,83.6,100.3z"/>
<path class="st1" d="M45.9,109.5c-1.3-0.2-2.3-0.6-2.3-1.9c0-1.1,0.8-1.6,1.8-1.6c1.1,0,1.9,0.5,1.8,1.7
	C47.1,108.6,46.9,109.5,45.9,109.5z"/>
<path class="st2" d="M57.2,78.3c1.9,0.9,2.5,2.5,2.7,4.2c0.8,5.2-1.1,9.9-3.1,14.8c-1-3.3-1-3.3-4.6-3.5
	C55.6,89.2,57.1,84.1,57.2,78.3z"/>
<path class="st1" d="M39.4,56.6c0,0.1-1.2-0.6-1.7,0.4c-0.4,0.8-1.5,0.5-2.3,0.3c-0.7-0.1-1.2-1.6-2.3-0.5c-0.1,0.1-0.6-0.4-0.4-0.8
	c1.1-1.6,2.9-1.7,4.6-1.6C38.5,54.4,39.7,54.8,39.4,56.6z"/>
<path class="st1" d="M47.9,71.1c-0.1,2-3.6,0.4-3.1,3.1c-1.1,0-2.5,0.9-2.7-1.3c0-0.3-0.9-0.4-1.4-0.6c-0.6-0.3-1.4-0.3-1.8-1.3
	c1.6-0.2,2.9,0.7,4.4,0.8C44.8,71.7,46.3,71,47.9,71.1z"/>
<path class="st1" d="M47.6,56.3c3-2.3,6-1.9,7.3,0.7c-1.2,0.3-2.4,0.6-3.6,0.9C49.8,58.1,49.4,56.1,47.6,56.3z"/>
<path class="st1" d="M40.4,52.5c-3,0.1-5.5-1.7-8.2-0.5C33.8,50.1,38.6,50.3,40.4,52.5z"/>
<path class="st1" d="M47.5,52.5c2.5-1.1,5.1-1.8,7.7-0.3C52.7,53,50.1,52.4,47.5,52.5z"/>
<path class="st1" d="M40.9,64.6c1.9,0.6,3.4,0.6,5.4,0.1c-0.8,1.7-1.9,1.6-2.9,1.5C42.5,66.2,41.5,66.1,40.9,64.6z"/>
</svg>
