<?xml version="1.0" encoding="utf-8"?>
<!-- Generator: Adobe Illustrator 19.1.0, SVG Export Plug-In . SVG Version: 6.00 Build 0)  -->
<svg version="1.1" id="Calque_1" xmlns="http://www.w3.org/2000/svg" xmlns:xlink="http://www.w3.org/1999/xlink" x="0px" y="0px"
	 viewBox="0 0 148 150" style="enable-background:new 0 0 148 150;" xml:space="preserve">
<style type="text/css">
	.st0{fill:#212D42;}
	.st1{fill:#FEFEFE;}
</style>
<path class="st0" d="M114.7,62.5c1.6,0.5,1.8,1.4,1.6,2.6c-1.1,7.9-3.4,15.4-7.5,22.3c-0.3,0.6-0.7,1.1-1.2,1.9
	c5.6,1.7,9,6.1,12.9,9.9c1.2,1.1,2.4,2,3.9,2.6c9.6,4,15.9,11.3,20.5,20.3c2.5,4.8,3.2,10.2,3,15.5c0,1.4-1.1,3.8-3.3,4
	c-6.9,0.5-13.9,1.7-20.8-0.3c-2.3-0.6-4.5,0.1-6.7,0.4c-5,0.9-10.1,0.2-15.2,0.6c-1.3,0.1-2.8-0.5-2-2.5c2.5-7.1,3.1-14.6,3.7-22.1
	c0.1-1.7,0.4-3.5,0.6-5.2c-1.2,0-1.1,1-1.4,1.6c-1.3,2.8-2.6,5.6-5.1,7.6c-0.7,0.6-1.3,1.4-2.4,0.9c-1.1-0.5-0.8-1.5-0.7-2.4
	c0.2-1.8,0.5-3.6-0.3-5.8c-1.4,2-2.1,4.1-3.9,5.3c-0.7,0.5,0,1.2,0.1,1.8c1.7,5.7,3.4,11.5,3.3,17.6c0,0.6,0.1,1.2,0,1.7
	c-0.1,0.7-0.3,1.6-1.3,1.5c-0.9-0.1-1.2-0.7-1.2-1.6c0.2-6.8-2.1-13.1-3.5-19.7c-1.7,0.1-3.4,0.5-5.1-0.1
	c-1.8,6.8-1.6,13.6-1.8,20.2c0,1.1,0.5,2.4-1,2.6c-1.6,0.1-1.4-1.5-1.5-2.4c-0.2-5.2-0.4-10.5,1-15.6c0.9-3.3,1.7-6.3-0.3-9.5
	c-0.4-0.6-0.4-1.4-0.6-2.5c-2.1,2-3,4.4-3.7,6.9c-0.2,0.9-0.1,2.1-1.3,2.5c-1.3,0.3-2-0.6-2.8-1.4c-3.1-3.4-5.8-7.1-8.1-11
	c-0.8-1.4-1.4-3-3.5-4c2.2,5.8,3.9,11.3,6.1,16.6c2.9,6.6,5.7,13.3,9.5,19.5c1,1.6,0,2-1.4,2.2c-6.8,1-13.6,0.2-20.4,0.6
	c-8.6,0.6-17.3-0.4-25.9,0.7c-2.7,0.3-5.3,0.3-7.9-0.5c-2.8-0.9-5.8-0.8-8.7-0.6c-2.1,0.1-4.2-0.1-6.2-0.6c-2.6-0.6-3.6-2.3-3.6-5.6
	c0-7.2,1.4-14.3,3.6-21.1c2.6-8.2,9.4-13.1,17.3-16.2c3.8-1.5,7.8-2.3,11.7-3.4c5-1.4,9.6-3.4,12.3-8.5c1.5-2.9,4.6-4.5,7.7-5.6
	c1.9-0.7,3.2-1.9,4.8-3c5.2-3.7,4.8-9.1,5.6-14.2c0.2-1.1-0.3-1.7-1.3-2.4c-4.2-3-6.9-7.1-7.7-12.3c-0.4-2.8,0.2-5.4,2-7.5
	c1.2-1.4,1.3-2.6,0.8-4.1c-1.9-5.9-1.6-11.8,1.1-17.3c2.6-5.1,4.5-11,9.1-14.7C74.5,3.2,82.1-0.8,91.4,1c1.9,0.4,3.7,1.1,5.3,2.2
	c1.2,0.8,2.3,1.1,3.7,0.8c6.4-1.4,15,2.4,17.7,8.9c1.7,4.4,4.5,8,6.4,12.2c2.3,5.3,1.8,10.4-0.9,15.3c-1.3,2.4-2.4,4.9-4.6,6.8
	c4,2.4,5.1,5.8,3.2,10c-1.7,3.9-6.3,6.1-10.3,4.7c-2.6-0.9-5.2-1.7-6.8-4.3c-1-1.6-1.6-3.4-1.4-5.2c0.3-2.7-1-2.9-3.2-2.6
	c-0.3,2.1-0.7,4-1.7,5.7c-1.4,2.6-3.6,3.7-6.4,3.6c-3.3-0.1-6.6-0.6-9.9-1.3c-3.7-0.8-5.9-3.1-6.5-6.7c-0.3-2.1-1.2-3-3.2-3.3
	c-1.8-0.3-3.5-0.9-5.3-1.4c-1.9,1.8,0.1,4.8-2.4,6.8c-0.9-2.1-1.3-4.2-2.5-5.8c-1-1.5-2.1-2.9-3.9-2.5c-2,0.4-2.2,2.4-2.3,4
	c-0.1,4.3,1.6,8.1,4.7,10.9c2.8,2.6,4.7,5.3,5.9,9.1c3.1,10.3,10.4,17.2,20,21.7c4.9,2.3,10,1.5,14.9-0.3c2.3-0.9,3.9-2.7,5.1-4.9
	c3.6-6.2,5-13.2,6.7-20C114.2,64.6,114.4,63.7,114.7,62.5z M93.2,12.7c0.4-0.3,0.7-0.2,1.2,0.4C93.7,13,93.4,13.1,93.2,12.7
	c-2.1-2.3-4.5-0.9-6.8-0.8C88.7,11.7,91,12,93.2,12.7z M103.6,13.2c2-0.9,3.9-1.8,5.9-2.7c-2.4,0-4.6,0.6-6.2,2.5
	c-0.5,0.1-0.9,0.3-0.7,0.9C103.3,14.1,103.5,13.7,103.6,13.2z M75.5,17.8c-1.7,1.7-3.8,3.1-3.6,5.9c0.2,3.2-1.1,5.8-2.8,8.3
	c-0.5,0.8-1.4,1.4-1.3,3.3c2.3-3.3,4.9-5.8,4.9-9.5c0-2.4,0.7-4.3,2.3-6c0.4-0.5,0.9-1,0.8-1.7c0.6-0.4,1.1-0.7,1.3-1.5
	C75.9,16.3,75.8,17.2,75.5,17.8z M116.5,46.9c0.8-3.5,1.3-7,1.9-10.4c2.1-12.2-8.6-18.8-17.2-18.5c-0.9,0-1.9,0.3-2.7,0
	c-3.8-1.3-7.7-1.2-11.6-1.5c-1.3-0.1-2.4,0.2-3.6,0.7c-4.3,2-5.8,5.7-6.5,10c-0.3,2.1-1.3,3.9-2.3,5.7c-2.1,3.7-4.8,7.1-6.2,11.6
	c2.6,0.6,5.1,1.2,7.5,1.7c1.4-4.3,2.2-4.9,6.5-4.8c4.2,0.1,8.4,0.7,12.6,1.4c2.9,0.5,4.8,2,5.9,5.1c1.3-1.1,3,1.1,3.9-0.5
	c1.1-2.2,2.8-1.8,4.5-1.6C111.4,46,113.9,46.5,116.5,46.9z M60.7,80.6c-0.8-0.1-1.1,0.5-1.4,0.9c-2.7,4-3.2,8.4-1.7,12.8
	c2.3,6.9,6.1,13.1,10.2,19.1c1.5,2.1,2.7,4.4,5.1,6.1c1.9-6.6,6.2-11.2,11.3-14.6C73.9,98.8,63.8,93.1,60.7,80.6z M65.5,72.9
	c-1.2,1.9-0.8,4.1-2,5.8c-1,1.4-0.7,2.8-0.1,4.2c1,2.1,2,4.2,3.6,5.9c5.4,5.5,11.2,10.6,18.8,13.1c0.8,0.3,1.5,0.8,2.2,1.2
	c4-1.8,7.2-4.5,9.6-8.3c-1.2,0.1-2.2,0.3-3.1,0.3c-1,0-2,0-3-0.1c-9.4-1.6-15.9-7.6-21.8-14.5C68.1,78.3,67,75.5,65.5,72.9z
	 M90.9,56.6c1.9-0.3,4.2,0.2,5.3-2c1-1.9,1.5-3.9,1.5-6c0-1.9-0.9-3.3-2.7-3.7c-4.9-1-9.8-1.7-14.8-1.5c-1.2,0-2.2,0.6-2.4,1.8
	c-0.6,5,0.2,9.6,6.2,10.6C86.3,56.3,88.6,56.4,90.9,56.6z M97.4,117.6c5.8-5.1,8.8-18.4,5.2-24.5c-4.1,3.6-6.5,9-12.3,11.1
	C95,107.7,96.9,112.2,97.4,117.6z M105.7,52.6c0,3.3,1.1,4.9,4.3,5.9c1.6,0.5,3.4,0.9,5.1,1c3.6,0.2,6.9-4.7,5.5-8
	c-0.3-0.7-0.7-1.2-1.6-1.5c-2.7-0.7-5.3-1.7-8-2.1C106.3,47.1,105.7,47.8,105.7,52.6z M81,110.1c-1.3,2.2,0.1,4,0.5,5.9
	c0.6,2.4,2.7,2.9,4.7,2.5c1.4-0.3,2.8-0.9,4.1-1.7c1.7-1,2.2-3,4.1-3.8c-0.3-0.8-0.6-1.5-0.9-2.2C89.1,113.7,85.1,112.6,81,110.1z
	 M92.3,108.9c-0.5-2.3-3.5-2.4-3.6-5.3c-1.5,2.6-4.6,2.6-5.6,5.3C86.2,110,89.2,110.2,92.3,108.9z M77.4,13
	C72,14,66.5,20.5,68.6,25.6C68.4,19.6,72.8,16.6,77.4,13z M76.8,9.8c-5.2,0.9-10.7,6.7-10.4,10.9C68.6,15.9,72.5,12.9,76.8,9.8z
	 M65.2,33.9c1.4-1.7,2.8-3.5,2.6-5.8C67,30,66.1,32,65.2,33.9z M67.5,35.6c0.1-0.2,0.2-0.3,0.4-0.5c-0.1-0.1-0.3-0.2-0.3-0.2
	c-0.2,0.1-0.3,0.2-0.5,0.4C67.1,35.4,67.3,35.5,67.5,35.6z"/>
<path class="st0" d="M99.8,80.5c0.1,0.7,0.5,1.7-0.7,2c-1.4,0.3-2.7-0.1-3.9-1.1c1.2-1.5,2.8,0.1,4.3-1.1c-1.5-0.2-2.7-0.4-3.9-0.6
	c-1.1-0.2-2.1-0.4-3.1-0.8c-0.8-0.4-2.3-0.8-1.9-1.9c0.6-1.5,1.6-0.1,2.4,0.2c3.1,1.1,6.3,1.2,9.6,1.1c0.8,0,1.7-0.6,2.2,0.7
	C103.6,80.7,101.5,79.8,99.8,80.5z"/>
<path class="st0" d="M61.2,52.4c0.1-1.7-2-2.9-1-5.1c2,2.2,3,4.3,3.5,6.8c0.2,0.9,0.2,2.1-0.9,2.3c-0.9,0.2-2.1,0-2.7-1
	c-0.5-1-0.5-1.9,0.7-2.5C61.1,52.7,61.2,52.4,61.2,52.4z"/>
<path class="st0" d="M72.8,71.6c-1.5-4.2,0.3-9.2,3.8-11C74.1,63.8,72.7,67.5,72.8,71.6z"/>
<path class="st0" d="M104.6,67.9c-2.1,2.6-5.4,2.6-6.8,0.4c-0.3-0.4-0.4-0.8,0-1.1c0.2-0.2,0.7-0.3,0.9-0.2c0.9,0.4,1.5,1.3,2.6,1.2
	C102.3,68.3,103.2,68.1,104.6,67.9z"/>
<path class="st0" d="M76.4,65.3C75.7,69,75,72.4,75,76.5C73.3,73.3,74.1,68,76.4,65.3z"/>
<path class="st0" d="M105.6,80.4c0.5-1.5-0.4-2.7,0.4-4C107.4,78.3,107.4,78.5,105.6,80.4z"/>
<path class="st0" d="M90.7,74.2c-0.7,1.4-1.1,2.9-2.7,4.1C88.1,76.1,88.9,74.8,90.7,74.2z"/>
<path class="st1" d="M75.9,18.1c0.1,0.8-0.4,1.3-0.8,1.7c-1.6,1.7-2.3,3.6-2.3,6c0,3.7-2.7,6.1-4.9,9.5c-0.1-1.9,0.8-2.5,1.3-3.3
	c1.7-2.5,3-5.2,2.8-8.3c-0.2-2.8,1.9-4.2,3.6-5.9C75.6,17.9,75.7,18,75.9,18.1z"/>
<path class="st1" d="M77.4,13c-4.6,3.5-8.9,6.6-8.8,12.6C66.5,20.5,72,14,77.4,13z"/>
<path class="st1" d="M76.8,9.8c-4.2,3.1-8.2,6-10.4,10.9C66,16.6,71.6,10.7,76.8,9.8z"/>
<path class="st1" d="M65.2,33.9c0.9-1.9,1.7-3.9,2.6-5.8C68,30.5,66.7,32.2,65.2,33.9z"/>
<path class="st1" d="M103.3,13.1c1.6-2,3.7-2.5,6.2-2.5c-2,0.9-3.9,1.8-5.9,2.7C103.5,13.2,103.4,13.1,103.3,13.1z"/>
<path class="st1" d="M93.2,12.7c-2.2-0.7-4.5-1-6.8-0.8C88.7,11.8,91.1,10.4,93.2,12.7L93.2,12.7z"/>
<path class="st1" d="M75.5,17.8c0.3-0.6,0.4-1.5,1.7-1.2c-0.2,0.7-0.7,1.1-1.3,1.5C75.7,18,75.6,17.9,75.5,17.8z"/>
<path class="st1" d="M93.2,12.6c0.2,0.4,0.6,0.3,1.3,0.4C93.8,12.5,93.5,12.4,93.2,12.6C93.2,12.7,93.2,12.6,93.2,12.6z"/>
<path class="st1" d="M103.6,13.2c-0.1,0.6-0.4,0.9-1,0.8c-0.2-0.6,0.3-0.8,0.7-0.9C103.4,13.1,103.5,13.2,103.6,13.2z"/>
<path class="st1" d="M67.5,35.6c-0.2-0.1-0.3-0.2-0.5-0.3c0.2-0.1,0.3-0.3,0.5-0.4c0.1,0,0.2,0.1,0.3,0.2
	C67.7,35.3,67.6,35.5,67.5,35.6z"/>
<path class="st0" d="M94.1,39.1c-0.9,0.8-6.6,0.7-10.2-0.3C85.3,36.7,91.2,36.9,94.1,39.1z"/>
<path class="st0" d="M106.8,42.3c2.1-1.6,8.1-0.9,9.1,0.5c0.3,0.4,0.3,0.7,0,1.1c-0.3,0.5-0.8,0.7-1.3,0.5c-1.2-0.5-2.4-1.2-3.7-1.4
	C109.8,42.8,108.6,42.5,106.8,42.3z"/>
<path class="st0" d="M93.4,49c-1.1,1.3-7.3,2.4-8.6,1.6C86.7,48.1,90.3,47.3,93.4,49z"/>
<path class="st0" d="M108,52.8c0.8-2.2,2.1-1.5,3.3-1.3c1.4,0.3,2.7,0.9,2.8,2.3c0.1,1-0.8,1.5-1.7,0.8
	C111.2,53.5,109.9,53,108,52.8z"/>
<path class="st0" d="M116,58.3c0-3,1.9-5.1,1.2-7.8c2,0.6,1.7,2.1,1.6,3.1C118.5,55.3,118.7,57.3,116,58.3z"/>
</svg>
