<?xml version="1.0" encoding="utf-8"?>
<!-- Generator: Adobe Illustrator 19.1.0, SVG Export Plug-In . SVG Version: 6.00 Build 0)  -->
<svg version="1.1" id="Calque_1" xmlns="http://www.w3.org/2000/svg" xmlns:xlink="http://www.w3.org/1999/xlink" x="0px" y="0px"
	 viewBox="0 0 148 150" style="enable-background:new 0 0 148 150;" xml:space="preserve">
<style type="text/css">
	.st0{fill:#283449;}
	.st1{fill:#FEFEFE;}
</style>
<path class="st0" d="M93.9,76.9c5,0.5,6,4.3,7.1,7.9c0.3,0.9,0.5,1.5,1.4,2c7.3,3.8,14.2,8.4,21.2,12.7c2.3,1.4,4.8,2.7,7.3,3.8
	c3.8,1.8,7.1,4.3,10,7.4c1.7,1.7,3,3.8,3.1,6.1c0.1,4,1.6,7.6,2.4,11.4c0.9,4.3,0.6,8.4-0.2,12.6c-0.3,1.3-0.7,2.4-2.4,2
	c-1.7-0.3-1.5-1.4-1.2-2.6c1.5-7,0.7-13.8-1.9-20.4c-0.4-0.9-0.6-2-0.5-2.9c0.4-2.9-0.9-4.9-3-6.7c-2-1.7-4.2-3.3-6.6-4.4
	c-6.6-3.1-12.7-7-18.6-11.1c-3.1-2.2-6.8-3.5-10.2-6.3c0.5,4.1,1.4,7.5,2.3,10.9c1.4,5.2,0.3,10.2-1.7,15c-0.6,1.4-1.7,1.4-2.8,0.6
	c-1.6-1.1-2.4-2.7-3.5-4.2c-0.7-1-1.3-2.1-2.1-3.1c-2.7-3.2-3.1-3.2-7-1.8c-1,0.4-2.2,1.6-3.3-0.3c3-1.4,5.5-4.2,9.3-2.1
	c3.1,1.7,4.9,4.5,6.9,8c1.5-4.8,2.6-8.8,0.9-13.3c-1.6-4.3-2.4-8.8-3-13.4c-0.3-2.2-1.1-4.1-2.7-6.3c0,8.2-1.7,15.2-6.8,21
	c-3.5,4-8.2,6.4-12.7,9.1c-2,1.2-2.9,2.6-3.8,5.1c-2.7,7.8-1.4,15.9-2.4,23.7c-0.4,3.3-1.9,6.4-0.7,9.7c-1.7,0.5-2.3-0.3-2.6-1.2
	c-0.5-1.3-0.9-2.7-0.6-4.1c1.6-6.5,1.4-13.2,1.6-19.8c0.1-2.8,0.8-5.4,1.5-8.1c0.1-0.3,0.4-0.6,0.3-0.9c-0.6-4.1,2.4-5.3,5.2-7.1
	c4.6-2.9,9.6-5.3,13-9.9c2.9-3.9,4.2-8.4,5-13.2c0-0.3-0.1-0.6-0.3-1.5c-4.3,5.4-10,7.1-16.2,7c-6.7-0.1-11.1-4.2-14.9-9.3
	c-2.3,7,1.7,18.7,7.8,22.7c0.3,0.2,0.6,0.3,0.8,0.5c0.9,0.9,3.4,1.1,2.4,2.7c-0.8,1.3-2.6-0.3-3.7-1C60.9,99.6,57.5,93.2,57,85.2
	c-0.1-1.1-0.1-2.3-0.2-3.5c-6.9,3-12.7,13-15.3,27.6c2.3-1.8,3.6-4.3,5.8-6c1.7-1.4,3.5-2.5,5.5-3.4c1-0.5,2-0.9,2.9,0.1
	c0.2,0.2,0.4,0.5,0.8,0.4c4.8-1.4,6.2,3,9.2,5.2c-1.3,1.1-2.2,0.8-3.1,0.1c-0.9-0.7-1.8-1.5-2.6-2.3c-3.3-3.1-4.3-3-8-0.3
	c-3.4,2.5-5.8,6-9,8.7c-1,0.8-1.9,1.2-3.2,1.1c-2.2-0.1-2.8-1-2-3c2-4.9,2.2-10.2,4.3-15c-0.3-0.4-0.6-0.4-0.9-0.3
	C33,98,24.6,101,17.1,105.9c-1.6,1-3.2,2.2-4.4,3.7c-1.1,1.5-2,2.9-1.3,5c0.6,2.2-0.1,4.5-0.9,6.6c-2.6,7-4,14.4-5.9,21.6
	c-0.3,1-0.3,2.1-0.3,3.2c0,0.8-0.1,1.7-1,1.8c-0.9,0.1-1.7-0.5-1.8-1.6c-0.3-2.1-0.5-4.1,0.1-6.2c2-7.7,3.9-15.5,5.8-23.2
	c0.2-0.7,0.5-1.5,0.4-2.2c-0.7-5.8,2.8-9.3,7.1-11.9c7.1-4.3,14.7-7.4,22.3-10.6c2.4-1.1,4.8-2.3,7.3-3.3c0.8-0.3,1.2-0.9,1.5-1.5
	c2.5-4,6-6.8,10-9.2c1.9-1.1,1.7-3.4,1.1-5.1c-1.2-3.7-1.9-7.6-5.3-10.4c-2.9-2.4-3.3-6.2-2.9-10.1c0.3-2.7-0.7-5.5-1.1-8.2
	c0-0.2-0.2-0.3-0.2-0.5c0.4-3.8-1.8-7.3-1.1-11.2c0.4-2,1.3-4.3,0.5-6.5c-0.2-0.6,0.3-1.1,0.6-1.6c0.7-1.1,1.4-2,0.4-3.3
	c-0.2-0.3-0.2-1,0.1-1.4c2.1-3.4,4-7,7.2-9.6c2.7-2.2,6-3.5,9-5.2c4.4-2.5,9.2-3.1,14.2-2.4c3,0.4,6.3-0.4,8.4,2.7
	c0.2,0.3,0.9,0.1,1.4,0.1c4,0.6,7.2,2.4,9.3,6c1,1.7,1.9,3.2,4,3.8c1.6,0.5,2,2.2,2.2,3.7c0.2,1.4,0.7,2.5,1.6,3.6
	c0.4,0.5,0.8,0.9,0.7,1.5c-0.5,3.6,0.6,7.1-0.5,10.8c-1.3,4.3-1.6,8.9-2.3,13.4c0,0.2,0.1,0.5,0.1,0.7c2.5,6,1.4,10.8-3.7,15.1
	c-0.9,0.7-1.4,1.6-1.7,2.7C97,70.1,95.9,73.5,93.9,76.9z M53.7,51.2c0,0.8-0.3,1.7,0.2,2.5c1.7,2.7,2.4,5.8,3,8.9
	c1.2,6,3.5,11.5,6.7,16.8c5.6,9.1,18,8.3,23.1,2.7c5.8-6.2,8.7-14,10.6-22.2c1.1-4.6,0.9-9.2,1.4-13.8c0.3-2.8,0.1-5.9-1.2-8.6
	c-1.4-2.7-1.9-5.6-2.3-8.5c-0.6-4.8-1.2-5.5-6.1-5.3c-0.5,0-1,0-1.5,0.2c-8.1,2.1-16.2,1-24.2,0.2c-2.1-0.2-3.2,0.2-4.1,2.1
	C55.2,33.9,53.8,42.4,53.7,51.2z M99.4,60.1c2.1-2.7,3.1-8.2,1.7-10c-0.6,3.2-1.3,6.3-1.9,9.3C99.2,59.6,99.3,59.8,99.4,60.1z
	 M52.4,54c-0.2,0.1-0.4,0.1-0.7,0.2c-0.6,3.3,0.1,5.9,2.2,7.4C53.4,59,52.9,56.5,52.4,54z M91.9,81.2c-0.1-0.1-0.1-0.1-0.2-0.2
	c0,0.1-0.1,0.2-0.1,0.3c0,0,0.1,0.1,0.1,0.2C91.8,81.4,91.8,81.3,91.9,81.2z"/>
<path class="st0" d="M25.8,147.8c-2.3,0.4-3.3-1.2-4-2.7c-2.2-4.7-3.6-9.6-4-14.8c-0.1-2.1-0.1-4.2,0-6.2c0.1-1,0.1-2.2,1-3
	c1.4,0.4,2.2,1.1,2.1,2.6c-0.4,8.2,1.3,16,4.9,23.4C25.9,147.1,25.8,147.3,25.8,147.8z"/>
<path class="st0" d="M135.7,119.2c1.9,0.6,2.8,1.6,2.7,3.6c-0.2,6.1-1.9,11.7-5.2,16.8c-0.8,1.3-1.7,1.4-2.9,0.8
	c-1.3-0.7-0.9-1.7-0.3-2.5c3.6-5.3,5.2-11.2,5.4-17.6C135.3,120,135.6,119.6,135.7,119.2z"/>
<path class="st0" d="M78.4,113.9c-0.1,1.8-0.5,3.1-2.4,3.1c-1.6-0.1-3.1-0.8-3.1-2.5c0-1.8,1.5-2.7,3.2-2.9
	C77.9,111.3,78.1,112.8,78.4,113.9z"/>
<path class="st0" d="M72.6,137.6c2.2-0.1,3.3,0.7,3.3,2c0.1,1.2-0.4,2.6-2.2,2.2c-1.3-0.2-3.5,0.8-3.6-1.4
	C70.1,138.9,71.4,137.6,72.6,137.6z"/>
<path class="st1" d="M91.9,81.2c0,0.1-0.1,0.2-0.2,0.3c0-0.1-0.1-0.1-0.1-0.2c0-0.1,0.1-0.2,0.1-0.3C91.8,81.1,91.8,81.1,91.9,81.2z
	"/>
<path class="st0" d="M85,70.6c-1.3,1.8-3.4,1.4-5.1,2.2c0.2,2.5-1.1,2.8-6.6,1.6c0.1-3.1-3.1-2-4.2-3.5C69.4,70.5,83.7,70.1,85,70.6
	z"/>
<path class="st0" d="M81.6,48.6c2.5-3.2,8.9-3.3,11-0.5c0.3,0.4,0.5,0.7,0.2,1.1c-0.3,0.4-0.8,0.8-1.2,0.4c-1.4-1.1-2.6-1-3.8,0.2
	c-0.2,0.2-1,0.2-1.2-0.1C85.4,48.1,83.6,48.5,81.6,48.6z"/>
<path class="st0" d="M71.7,43.8c-4.2,0.9-8.4-0.2-12.5,1C61.1,41.7,68.5,41.1,71.7,43.8z"/>
<path class="st0" d="M93.1,43.8c-3.9,0.2-7.7-0.5-12.2-0.1C83.9,40.8,90,41,93.1,43.8z"/>
<path class="st0" d="M63.9,48.3c-1.1,0.1-2.2,0.9-3.3,0c2.7-2.7,8.6-2.6,10.4,0.5C68.4,48.5,66,52,63.9,48.3z"/>
<path class="st0" d="M72.9,60.1c2.8,2.5,5.5,1.4,8.7,0.5c-1.1,2.7-3,3.1-4.8,3C75.2,63.4,73.2,63.1,72.9,60.1z"/>
<path class="st0" d="M79.7,47.3c1.2,1.1,0.8,1.9,0.1,3C79.2,49.2,79.2,48.3,79.7,47.3z"/>
</svg>
