<?xml version="1.0" encoding="utf-8"?>
<!-- Generator: Adobe Illustrator 19.1.0, SVG Export Plug-In . SVG Version: 6.00 Build 0)  -->
<svg version="1.1" id="Calque_1" xmlns="http://www.w3.org/2000/svg" xmlns:xlink="http://www.w3.org/1999/xlink" x="0px" y="0px"
	 viewBox="-14 53 182 57" style="enable-background:new -14 53 182 57;" xml:space="preserve">
<style type="text/css">
	.st0{fill:none;stroke:#1D293F;stroke-miterlimit:10;}
	.st1{fill:#1D293F;}
	.st2{enable-background:new    ;}
</style>
<path class="st0" d="M-4.8,103.5c4.5,0,8.2-3.7,8.2-8.2c0-1.7-0.5-3.3-1.4-4.6l3.1-3.1C6.4,88.5,8,89,9.7,89s3.3-0.5,4.6-1.4
	l3.1,3.1C16.6,92,16,93.6,16,95.3c0,4.5,3.7,8.2,8.2,8.2s8.2-3.7,8.2-8.2c0-1.7-0.5-3.3-1.4-4.6l3.1-3.1c1.3,0.9,2.9,1.4,4.6,1.4
	c1.7,0,3.3-0.5,4.6-1.4l3.1,3.1C45.5,92,45,93.6,45,95.3c0,4.5,3.7,8.2,8.2,8.2s8.2-3.7,8.2-8.2s-3.7-8.2-8.2-8.2
	c-1.7,0-3.3,0.5-4.6,1.4l-3.1-3.1c0.9-1.3,1.4-2.9,1.4-4.6c0-4.5-3.7-8.2-8.2-8.2c-1.7,0-3.3,0.5-4.6,1.4L31,70.9
	c0.9-1.3,1.4-2.9,1.4-4.6c0-4.5-3.7-8.2-8.2-8.2S16,61.8,16,66.3c0,1.7,0.5,3.3,1.4,4.6L14.3,74c-1.3-0.9-2.9-1.4-4.6-1.4
	c-4.5,0-8.2,3.7-8.2,8.2c0,1.7,0.5,3.3,1.4,4.6l-3.1,3.1c-1.3-0.9-2.9-1.4-4.6-1.4c-4.5,0-8.2,3.7-8.2,8.2
	C-13,99.9-9.3,103.5-4.8,103.5z M16.5,76.2l3.1-3.1c1.3,0.9,2.9,1.4,4.6,1.4c1.7,0,3.3-0.5,4.6-1.4l3.1,3.1
	c-0.9,1.3-1.4,2.9-1.4,4.6c0,1.7,0.5,3.3,1.4,4.6l-3.1,3.1c-1.3-0.9-2.9-1.4-4.6-1.4c-1.7,0-3.3,0.5-4.6,1.4l-3.1-3.1
	c0.9-1.3,1.4-2.9,1.4-4.6C17.9,79.1,17.4,77.5,16.5,76.2z"/>
<circle class="st1" cx="53.4" cy="95.5" r="6.2"/>
<circle class="st1" cx="24.2" cy="95.5" r="6.2"/>
<circle class="st1" cx="38.6" cy="80.8" r="6.2"/>
<circle class="st1" cx="9.6" cy="80.8" r="6.2"/>
<circle class="st1" cx="24.2" cy="66.2" r="6.2"/>
<circle class="st1" cx="-4.9" cy="95.5" r="6.2"/>
<g class="st2">
	<path class="st1" d="M77.7,60.4h2.7v16.7h8.4v2.7H77.7V60.4z"/>
	<path class="st1" d="M92.1,79.8V60.4h11.1v2.7h-8.4v5.7h8.4v2.7h-8.4v5.6h8.4v2.7H92.1z"/>
	<path class="st1" d="M115.3,60.4l6.7,19.4h-2.9l-1.9-5.5h-6.6l-1.9,5.5h-2.9l6.6-19.4H115.3z M111.5,71.5h4.7l-2.4-7L111.5,71.5z"
		/>
	<path class="st1" d="M124.9,60.4h4.3c1,0,2,0.1,2.9,0.4c1,0.3,1.8,0.6,2.6,1.2c0.7,0.5,1.3,1.2,1.8,2s0.7,1.8,0.7,2.9
		c0,1.4-0.3,2.5-1,3.5c-0.7,1-1.6,1.7-2.9,2.2l5.5,7.2h-3.4l-4.9-6.5c-0.5,0.1-0.9,0.1-1.4,0.1c-0.2,0-0.5,0-0.7,0
		c-0.2,0-0.5,0-0.7,0v6.5h-2.7V60.4z M127.6,63.1v7.5h1.6c0.6,0,1.2-0.1,1.8-0.2c0.6-0.1,1.2-0.3,1.7-0.6c0.5-0.3,0.9-0.7,1.3-1.1
		s0.5-1.1,0.5-1.8c0-0.7-0.2-1.3-0.5-1.8c-0.3-0.5-0.7-0.9-1.3-1.2c-0.5-0.3-1.1-0.5-1.7-0.6s-1.2-0.2-1.8-0.2H127.6z"/>
	<path class="st1" d="M141.9,60.4h3.1l7.9,14.4V60.4h2.7v19.4h-3.1l-8-14.5v14.5h-2.7V60.4z"/>
</g>
<g class="st2">
	<path class="st1" d="M95.3,103.9c-0.6,0.3-1.3,0.4-2.1,0.4c-0.9,0-1.8-0.2-2.5-0.6s-1.3-1-1.8-1.9c-0.6,0.9-1.3,1.5-2.2,1.9
		c-0.9,0.4-1.9,0.6-2.9,0.6c-0.8,0-1.6-0.1-2.3-0.4c-0.7-0.3-1.4-0.6-1.9-1.1c-0.6-0.5-1-1.1-1.3-1.7c-0.3-0.7-0.5-1.4-0.5-2.3
		c0-1,0.3-1.9,0.9-2.6c0.6-0.7,1.4-1.3,2.3-1.7c-0.9-0.3-1.6-0.8-2.2-1.6s-0.9-1.6-0.9-2.6c0-0.8,0.2-1.6,0.5-2.3s0.7-1.2,1.3-1.7
		c0.5-0.5,1.2-0.8,1.9-1.1c0.7-0.3,1.5-0.4,2.3-0.4c0.7,0,1.4,0.1,2.1,0.3c0.7,0.2,1.3,0.5,1.9,0.9l-1.2,1.4
		c-0.4-0.3-0.8-0.5-1.3-0.7c-0.5-0.1-1-0.2-1.5-0.2c-0.5,0-1,0.1-1.5,0.3s-0.9,0.4-1.3,0.8c-0.4,0.3-0.7,0.7-1,1.2
		c-0.2,0.5-0.4,1-0.4,1.5c0,0.7,0.2,1.2,0.5,1.7c0.3,0.4,0.8,0.8,1.3,1c0.5,0.3,1.1,0.4,1.7,0.5c0.6,0.1,1.2,0.1,1.7,0.1h3.1v-3.3
		h1.7v3.3h4.6v1.7h-4.6v2.1c0,0.6,0.1,1.2,0.2,1.8s0.3,1.2,0.6,1.7c0.3,0.5,0.7,0.9,1.1,1.2s1,0.5,1.7,0.5c0.5,0,1-0.1,1.5-0.4
		L95.3,103.9z M83.7,102.6c1,0,2-0.3,2.7-0.9c0.8-0.6,1.3-1.4,1.6-2.4c-0.1-0.3-0.1-0.7-0.1-1s0-0.7,0-1c0-0.3,0-0.7,0-1
		s0-0.6,0-0.9h-3.4c-0.6,0-1.1,0.1-1.7,0.2s-1.1,0.3-1.6,0.6c-0.5,0.3-0.9,0.6-1.2,1.1c-0.3,0.5-0.5,1-0.5,1.7
		c0,0.6,0.1,1.1,0.4,1.5c0.3,0.5,0.6,0.8,1,1.2s0.9,0.6,1.4,0.7C82.7,102.5,83.2,102.6,83.7,102.6z"/>
	<path class="st1" d="M102.1,89.8c0,0.9,0.2,1.6,0.7,2.2c0.5,0.6,1.1,1.1,1.8,1.5c0.7,0.4,1.5,0.8,2.4,1.1c0.9,0.3,1.7,0.7,2.4,1.2
		c0.7,0.4,1.4,1,1.8,1.5s0.7,1.3,0.7,2.2c0,0.8-0.2,1.5-0.5,2.2s-0.7,1.1-1.3,1.5c-0.5,0.4-1.1,0.7-1.8,0.9
		c-0.7,0.2-1.4,0.3-2.2,0.3c-0.5,0-1,0-1.5-0.1c-0.5-0.1-1-0.2-1.5-0.4c-0.5-0.2-1-0.4-1.4-0.7c-0.4-0.3-0.8-0.6-1.1-1l1.3-1.2
		c0.6,0.6,1.2,1,2,1.3c0.8,0.3,1.5,0.5,2.4,0.5c0.5,0,0.9,0,1.4-0.1c0.5-0.1,0.9-0.3,1.3-0.5c0.4-0.2,0.7-0.5,0.9-0.9
		c0.2-0.4,0.4-0.8,0.4-1.4c0-0.7-0.2-1.4-0.7-1.8s-1.1-0.9-1.9-1.3c-0.7-0.4-1.5-0.7-2.4-1.1c-0.9-0.3-1.7-0.8-2.4-1.2
		s-1.4-1-1.9-1.7c-0.5-0.7-0.7-1.5-0.7-2.6c0-0.8,0.2-1.5,0.5-2.2c0.3-0.6,0.8-1.2,1.4-1.6c0.6-0.4,1.2-0.8,1.9-1
		c0.7-0.2,1.4-0.4,2.2-0.4c1,0,2,0.2,3,0.6c1,0.4,1.8,1,2.4,1.8l-1.3,1.2c-0.5-0.6-1.2-1.1-1.9-1.4c-0.7-0.3-1.5-0.5-2.3-0.5
		c-0.5,0-0.9,0.1-1.4,0.2c-0.5,0.1-0.9,0.4-1.3,0.6c-0.4,0.3-0.7,0.6-1,1C102.3,88.8,102.1,89.2,102.1,89.8z"/>
	<path class="st1" d="M124.8,95.4h-9.6v8.9h-1.6V84.9h1.6v8.8h9.6v-8.8h1.7v19.4h-1.7V95.4z"/>
	<path class="st1" d="M135.7,84.9l6.7,19.4h-1.9l-2.1-6.1h-7.4l-2.1,6.1h-1.8l6.7-19.4H135.7z M131.6,96.5h6.2l-3.1-9L131.6,96.5z"
		/>
	<path class="st1" d="M143.1,84.9h4.1c1,0,1.9,0.1,2.9,0.4c0.9,0.2,1.8,0.6,2.5,1.1c0.7,0.5,1.3,1.2,1.8,1.9s0.7,1.7,0.7,2.8
		c0,1.5-0.4,2.7-1.2,3.7c-0.8,1-1.9,1.7-3.3,2.1l5.5,7.3H154l-5.3-7c-0.4,0-0.7,0.1-1.1,0.1c-0.4,0-0.7,0-1.1,0c-0.3,0-0.6,0-0.9,0
		s-0.6,0-0.9,0v6.9h-1.6V84.9z M144.7,86.5v9.2h2.5c0.7,0,1.4-0.1,2.2-0.3c0.7-0.2,1.4-0.4,2-0.8c0.6-0.4,1.1-0.8,1.4-1.4
		c0.4-0.6,0.6-1.3,0.6-2.1c0-0.8-0.2-1.6-0.6-2.1c-0.4-0.6-0.9-1.1-1.4-1.4c-0.6-0.4-1.3-0.6-2-0.8s-1.5-0.2-2.2-0.2H144.7z"/>
	<path class="st1" d="M156.6,104.3V84.9h10.8v1.7h-9.2v7.2h9.2v1.7h-9.2v7.2h9.2v1.7H156.6z"/>
</g>
</svg>
