<?xml version="1.0" encoding="utf-8"?>
<!-- Generator: Adobe Illustrator 19.1.0, SVG Export Plug-In . SVG Version: 6.00 Build 0)  -->
<svg version="1.1" id="Calque_1" xmlns="http://www.w3.org/2000/svg" xmlns:xlink="http://www.w3.org/1999/xlink" x="0px" y="0px"
	 viewBox="0 0 182 57" style="enable-background:new 0 0 182 57;" xml:space="preserve">
<style type="text/css">
	.st0{fill:none;stroke:#1D293F;stroke-miterlimit:10;}
	.st1{fill:#1D293F;}
	.st2{font-family:'Morningtype-Bold';}
	.st3{font-size:29.4824px;}
	.st4{font-family:'Morningtype-Light';}
</style>
<path class="st0" d="M9.2,50.5c4.5,0,8.2-3.7,8.2-8.2c0-1.7-0.5-3.3-1.4-4.6l3.1-3.1c1.3,0.9,2.9,1.4,4.6,1.4c1.7,0,3.3-0.5,4.6-1.4
	l3.1,3.1C30.6,39,30,40.6,30,42.3c0,4.5,3.7,8.2,8.2,8.2c4.5,0,8.2-3.7,8.2-8.2c0-1.7-0.5-3.3-1.4-4.6l3.1-3.1
	c1.3,0.9,2.9,1.4,4.6,1.4c1.7,0,3.3-0.5,4.6-1.4l3.1,3.1c-0.9,1.3-1.4,2.9-1.4,4.6c0,4.5,3.7,8.2,8.2,8.2c4.5,0,8.2-3.7,8.2-8.2
	c0-4.5-3.7-8.2-8.2-8.2c-1.7,0-3.3,0.5-4.6,1.4l-3.1-3.1c0.9-1.3,1.4-2.9,1.4-4.6c0-4.5-3.7-8.2-8.2-8.2c-1.7,0-3.3,0.5-4.6,1.4
	L45,17.9c0.9-1.3,1.4-2.9,1.4-4.6c0-4.5-3.7-8.2-8.2-8.2c-4.5,0-8.2,3.7-8.2,8.2c0,1.7,0.5,3.3,1.4,4.6l-3.1,3.1
	c-1.3-0.9-2.9-1.4-4.6-1.4c-4.5,0-8.2,3.7-8.2,8.2c0,1.7,0.5,3.3,1.4,4.6l-3.1,3.1c-1.3-0.9-2.9-1.4-4.6-1.4c-4.5,0-8.2,3.7-8.2,8.2
	C1,46.9,4.7,50.5,9.2,50.5z M30.5,23.2l3.1-3.1c1.3,0.9,2.9,1.4,4.6,1.4c1.7,0,3.3-0.5,4.6-1.4l3.1,3.1c-0.9,1.3-1.4,2.9-1.4,4.6
	c0,1.7,0.5,3.3,1.4,4.6l-3.1,3.1c-1.3-0.9-2.9-1.4-4.6-1.4c-1.7,0-3.3,0.5-4.6,1.4l-3.1-3.1c0.9-1.3,1.4-2.9,1.4-4.6
	C31.9,26.1,31.4,24.5,30.5,23.2z"/>
<circle class="st1" cx="67.4" cy="42.5" r="6.2"/>
<circle class="st1" cx="38.2" cy="42.5" r="6.2"/>
<circle class="st1" cx="52.6" cy="27.8" r="6.2"/>
<circle class="st1" cx="23.6" cy="27.8" r="6.2"/>
<circle class="st1" cx="38.2" cy="13.2" r="6.2"/>
<circle class="st1" cx="9.1" cy="42.5" r="6.2"/>
<text transform="matrix(1 0 0 1 91.1561 26.7935)"><tspan x="0" y="0" class="st1 st2 st3">LEARN</tspan><tspan x="0" y="24.5" class="st1 st4 st3">&amp; SHARE</tspan></text>
</svg>
